<?xml version="1.0" standalone="no"?>
<!DOCTYPE svg PUBLIC "-//W3C//DTD SVG 1.1//EN" "http://www.w3.org/Graphics/SVG/1.1/DTD/svg11.dtd" >
<svg xmlns="http://www.w3.org/2000/svg">
<metadata></metadata>
<defs>
<font id="ultramagneticbold" horiz-adv-x="1169" >
<font-face units-per-em="2048" ascent="1638" descent="-410" />
<missing-glyph horiz-adv-x="514" />
<glyph horiz-adv-x="2048" />
<glyph horiz-adv-x="2048" />
<glyph unicode="&#xd;" horiz-adv-x="0" />
<glyph unicode=" "  horiz-adv-x="514" />
<glyph unicode="&#x09;" horiz-adv-x="514" />
<glyph unicode="&#xa0;" horiz-adv-x="514" />
<glyph unicode="!" horiz-adv-x="512" d="M86 1552q0 35 25.5 60.5t60.5 25.5h168q35 0 60.5 -25.5t25.5 -60.5l-29 -1028q-2 -33 -25.5 -57.5t-58.5 -24.5h-110q-33 0 -58.5 23.5t-27.5 56.5zM94 82v137q0 35 25.5 59.5t60.5 24.5h142q35 0 60.5 -24.5t25.5 -59.5v-137q0 -33 -25 -57.5t-59 -24.5h-144 q-35 0 -60.5 24.5t-25.5 57.5z" />
<glyph unicode="&#x22;" horiz-adv-x="966" d="M80 1501q0 137 92 137h160q92 0 92 -137q0 -47 -12 -139q-15 -108 -17 -141q-4 -74 -86 -74h-114q-80 0 -86 74q-2 33 -17 141q-12 92 -12 139zM543 1501q0 137 90 137h162q90 0 90 -137q0 -47 -11 -139q-14 -108 -16 -141q-6 -74 -86 -74h-117q-80 0 -84 74 q-2 33 -16 141q-12 92 -12 139z" />
<glyph unicode="#" horiz-adv-x="1411" d="M86 821v101q0 33 22.5 57.5t57.5 24.5h182q27 0 27 24v21q0 25 -27 24h-182q-35 0 -57.5 25.5t-22.5 58.5v98q0 33 22.5 58.5t57.5 25.5h184q25 0 25 25v192q0 35 26.5 58.5t61.5 23.5h104q35 0 59.5 -24.5t24.5 -57.5v-192q0 -25 31 -25h18q27 0 27 25v192 q0 33 22.5 57.5t59.5 24.5h106q37 0 60.5 -24.5t23.5 -57.5v-192q0 -25 31 -25h211q35 0 60.5 -25.5t25.5 -58.5v-98q0 -33 -25.5 -58.5t-60.5 -25.5h-213q-29 0 -29 -24v-21q0 -25 29 -24h213q35 0 60.5 -24t25.5 -58v-101q0 -33 -25.5 -57.5t-60.5 -24.5h-215 q-27 0 -27 -24v-178q0 -33 -23.5 -58.5t-60.5 -25.5h-106q-37 0 -59.5 25.5t-22.5 58.5v178q0 25 -31 24h-18q-27 0 -27 -24v-178q0 -33 -24.5 -58.5t-59.5 -25.5h-104q-35 0 -61.5 24.5t-26.5 59.5v178q0 25 -31 24h-178q-35 0 -57.5 24.5t-22.5 57.5zM651 1028 q0 -25 31 -24h18q27 -1 27 24v21q0 25 -31 24h-18q-27 0 -27 -24v-21z" />
<glyph unicode="$" horiz-adv-x="1054" d="M86 520q0 47 49 64l129 41q23 8 41 8q43 0 72 -48t55 -93q37 -49 100 -50q111 0 111 84t-135 168q-246 154 -250 158q-135 111 -135 258q0 276 258 342q4 2 4 6v94q0 35 23.5 60.5t60.5 25.5h111q37 0 62.5 -25.5t25.5 -60.5v-94q0 -4 4 -4q229 -61 278 -272q2 -12 2 -23 q0 -37 -43 -55l-127 -55q-20 -8 -37 -9q-35 0 -90 81t-127 81q-41 0 -71.5 -27.5t-30.5 -64.5q0 -35 137 -115q180 -104 256 -178q137 -131 137 -291q0 -293 -290 -352q2 0 2 -4v-86q0 -33 -23.5 -58.5t-58.5 -25.5h-113q-35 0 -61.5 25.5t-26.5 60.5v96q0 6 -2 6 q-106 39 -184 117q-84 84 -109 187q-4 14 -4 28z" />
<glyph unicode="%" horiz-adv-x="2058" d="M86 1135v178q0 145 106.5 246.5t256.5 101.5h88q150 0 256 -101.5t106 -246.5v-178q0 -145 -106.5 -248t-255.5 -103h-88q-150 0 -256.5 102.5t-106.5 248.5zM401 1139q0 -31 25 -54.5t55 -23.5h39q31 0 53.5 22.5t22.5 55.5v166q0 31 -22.5 53t-53.5 22h-39 q-33 0 -56.5 -22.5t-23.5 -52.5v-166zM655 55q0 14 4 29l461 1518q8 23 34 41t48 18h129q86 0 86 -78q0 -15 -4 -29l-457 -1517q-6 -23 -31.5 -41.5t-50.5 -18.5h-133q-86 0 -86 78zM1159 328v178q0 145 106.5 246.5t256.5 101.5h88q152 0 257 -101.5t105 -246.5v-178 q0 -145 -106.5 -248t-255.5 -103h-88q-150 0 -256.5 102.5t-106.5 248.5zM1475 332q0 -31 24.5 -54.5t56.5 -23.5h39q29 0 51.5 22.5t22.5 55.5v166q0 33 -21.5 54t-52.5 21h-39q-33 0 -57 -22.5t-24 -52.5v-166z" />
<glyph unicode="&#x26;" horiz-adv-x="1267" d="M86 395v127q0 281 141 363q-106 106 -106 280v129q0 145 117.5 256t269.5 111h94q152 0 272.5 -114.5t120.5 -260.5v-61q0 -33 -27.5 -55.5t-60.5 -22.5h-159q-33 0 -58.5 19.5t-25.5 50.5v57q0 37 -29 64.5t-68 27.5h-35q-41 0 -68.5 -27.5t-27.5 -64.5v-109 q0 -61 29 -100t70 -39h575q82 0 82 -78v-143q0 -33 -22.5 -59.5t-59.5 -26.5h-90q-29 0 -29 -29v-299q0 -33 25.5 -57.5t62.5 -24.5h41q35 0 60.5 -24.5t25.5 -59.5v-166q0 -33 -24.5 -57.5t-61.5 -24.5h-59q-139 0 -246 72q-104 -72 -235 -72h-64q-178 0 -304 123t-126 295 zM410 426q0 -63 32.5 -107.5t77.5 -44.5h23q53 0 88 56q33 47 33 102v258q0 29 -29 29h-109q-45 0 -80.5 -37t-35.5 -96v-160z" />
<glyph unicode="'" horiz-adv-x="503" d="M80 1501q0 137 92 137h160q92 0 92 -137q0 -47 -12 -139q-15 -108 -17 -141q-4 -74 -86 -74h-114q-80 0 -86 74q-2 33 -17 141q-12 92 -12 139z" />
<glyph unicode="(" horiz-adv-x="661" d="M86 801q0 342 190 948q20 66 74 66h150q27 0 51 -19.5t24 -46.5q0 -113 -74.5 -458t-74.5 -521q0 -184 35 -428q37 -260 94 -432q2 -8 2 -16q0 -25 -23.5 -45.5t-50.5 -20.5h-161q-49 0 -72 63q-164 465 -164 910z" />
<glyph unicode=")" horiz-adv-x="661" d="M86 1749q0 27 25.5 46.5t50.5 19.5h151q51 0 72 -66q190 -606 190 -948q0 -444 -163 -910q-23 -63 -72 -63h-162q-25 0 -49.5 20.5t-24.5 45.5q0 8 2 16q55 172 95 432q35 244 35 428q0 221 -39 481q-41 279 -109 482q-2 8 -2 16z" />
<glyph unicode="*" horiz-adv-x="993" d="M80 1303q0 14 8 30q18 45 35 90q35 66 78 66q16 0 35 -8l170 -86q-10 35 -23 67q-20 68 -21 113q0 86 74 86h131q74 0 74 -80q0 -45 -25 -115q-14 -37 -26 -71q39 25 80 49q86 45 137 45q53 0 65 -47q10 -27 21 -53q16 -49 16 -84q0 -59 -53 -62l-207 -10l86 -66 q74 -66 74 -110q0 -31 -29 -49q-33 -25 -65 -47q-57 -39 -94 -39t-54 36l-75 175q-25 -53 -50 -109q-53 -98 -108 -98q-23 0 -45 18q-37 27 -72 51q-59 49 -59 84q0 23 22 39l158 115h-27q-31 -2 -55 -2q-176 0 -176 72z" />
<glyph unicode="+" horiz-adv-x="1187" d="M86 713v123q0 33 26.5 56t61.5 23h268v254q0 33 27 57.5t61 24.5h129q37 0 61.5 -24.5t24.5 -57.5v-254h269q37 0 62.5 -24.5t25.5 -56.5v-123q0 -35 -26.5 -58.5t-61.5 -23.5h-269v-254q0 -33 -25.5 -57.5t-62.5 -24.5h-129q-37 0 -61.5 24.5t-24.5 57.5v254h-268 q-35 0 -61.5 24.5t-26.5 59.5z" />
<glyph unicode="," horiz-adv-x="516" d="M86 49v176q0 33 25.5 54.5t60.5 21.5h170q35 0 61.5 -21.5t26.5 -54.5v-176q0 -23 -31 -88l-96 -197q-33 -66 -86 -65h-27q-29 0 -55 16q-33 18 -33 47q0 10 4 21l74 197q-2 -6 -8 -7q-33 0 -59.5 22.5t-26.5 53.5z" />
<glyph unicode="-" horiz-adv-x="1064" d="M86 610v109q0 29 23.5 50.5t60.5 21.5h723q37 0 61.5 -21.5t24.5 -50.5v-109q0 -68 -86 -67h-723q-84 0 -84 67z" />
<glyph unicode="." horiz-adv-x="520" d="M86 74v162q0 31 26.5 50t61.5 19h174q33 0 60.5 -19.5t27.5 -49.5v-162q0 -29 -26.5 -51.5t-61.5 -22.5h-174q-35 0 -61.5 22.5t-26.5 51.5z" />
<glyph unicode="/" horiz-adv-x="931" d="M86 55q0 14 4 29l461 1518q6 23 31.5 41t50.5 18h127q88 0 88 -78q0 -15 -4 -29l-457 -1517q-6 -23 -31.5 -41.5t-50.5 -18.5h-133q-86 0 -86 78z" />
<glyph unicode="0" horiz-adv-x="1126" d="M86 436v766q0 190 139.5 324.5t333.5 134.5h10q195 0 333 -134t138 -325v-766q0 -190 -138 -324.5t-333 -134.5h-10q-195 0 -334 134.5t-139 324.5zM436 465q0 -80 41 -132t96 -52t96.5 52t41.5 132v713q0 80 -43 135q-39 49 -95 49q-55 0 -94 -49q-43 -55 -43 -135v-713 z" />
<glyph unicode="1" horiz-adv-x="739" d="M63 1264v69q0 39 70 76q51 27 106.5 56.5t92.5 62.5q123 111 155 110h80q35 0 61.5 -21.5t26.5 -55.5v-1481q0 -35 -26.5 -57.5t-61.5 -22.5h-168q-35 0 -59.5 23.5t-24.5 56.5v1098l-168 2q-37 0 -60.5 25.5t-23.5 58.5z" />
<glyph unicode="2" horiz-adv-x="1095" d="M86 80v133q0 51 29 88q303 377 336 422q225 309 225 455v43q0 78 -36 118.5t-85 40.5q-47 0 -83 -46t-36 -113v-29q0 -35 -24.5 -58.5t-59.5 -23.5h-170q-33 0 -60.5 24.5t-27.5 57.5v51q0 172 127 295t307 123h54q180 0 305 -123t125 -295v-92q0 -184 -185 -455 q-109 -158 -323 -395l-6 -8h411q35 0 59.5 -22.5t24.5 -57.5v-133q0 -33 -24.5 -56.5t-59.5 -23.5h-739q-35 0 -59.5 23.5t-24.5 56.5z" />
<glyph unicode="3" horiz-adv-x="1099" d="M86 410v45q0 35 24.5 58.5t59.5 23.5h182q35 0 59.5 -26t24.5 -56v-23q0 -55 31 -102q37 -55 88 -56h23q47 0 78.5 44t31.5 108v160q0 59 -35 96t-80 37h-77q-37 0 -59.5 26.5t-22.5 59.5v143q0 78 82 78h77q41 0 72 40t31 99v109q0 37 -29 64.5t-69 27.5h-46 q-41 0 -68.5 -27.5t-27.5 -64.5v-57q0 -31 -25.5 -50.5t-58.5 -19.5h-159q-35 0 -62 22.5t-27 55.5v61q0 145 121 260t271 115h96q150 0 268.5 -110.5t118.5 -256.5v-129q0 -174 -107 -280q141 -80 142 -322v-168q0 -172 -126 -295t-306 -123h-64q-186 0 -315 142 q-117 129 -117 291z" />
<glyph unicode="4" horiz-adv-x="1171" d="M57 477v152q0 53 27 98l516 846q39 66 84 65h178q33 0 59.5 -22.5t26.5 -54.5v-883v2h84q35 0 58.5 -23.5t23.5 -56.5v-123q0 -33 -24.5 -55.5t-57.5 -22.5h-84v-319q0 -33 -25.5 -56.5t-60.5 -23.5h-157q-35 0 -59.5 23.5t-24.5 56.5v319h-484q-33 0 -56.5 25t-23.5 53z M387 676h236l-2 387z" />
<glyph unicode="5" horiz-adv-x="1064" d="M86 326v118q0 35 23.5 58.5t60.5 23.5h168q35 0 59.5 -23.5t24.5 -58.5v-18q0 -88 16 -119q25 -41 94 -41q125 0 125 160v285q0 188 -125 188q-59 0 -102 -69.5t-88 -69.5h-156q-33 0 -62.5 23.5t-29.5 58.5v719q0 35 29 56t59 21h668q35 0 59.5 -22.5t24.5 -54.5v-146 q0 -33 -24.5 -56.5t-59.5 -23.5h-440l-2 -223q113 53 194 53q156 0 262 -88q115 -98 115 -256v-469q0 -150 -96 -258q-102 -117 -267 -117h-167q-150 0 -256.5 101.5t-106.5 247.5z" />
<glyph unicode="6" horiz-adv-x="1101" d="M86 395v848q0 174 127 296t305 122h47q199 0 316 -127q106 -119 106 -301q0 -33 -23.5 -55.5t-58.5 -22.5h-162q-35 0 -60.5 22.5t-25.5 55.5v45q0 37 -30.5 65.5t-71.5 28.5h-23q-39 0 -74.5 -42t-35.5 -93v-238q84 68 205 68q172 0 280.5 -116.5t108.5 -288.5v-267 q0 -184 -124 -301t-304 -117h-70q-178 0 -305 123t-127 295zM430 406q0 -45 31 -83t67 -38h50q35 0 66.5 38t31.5 83v272q0 39 -29 66.5t-69 27.5h-50q-37 0 -67.5 -38t-30.5 -83v-245z" />
<glyph unicode="7" horiz-adv-x="1009" d="M45 1411v150q0 78 82 77h733q35 0 60.5 -22.5t25.5 -54.5v-125q0 -27 -14 -80l-328 -1282q-18 -74 -82 -74h-200q-72 0 -72 68q0 10 2 20l326 1243h-451q-35 0 -58.5 23.5t-23.5 56.5z" />
<glyph unicode="8" horiz-adv-x="1095" d="M86 387v139q0 190 150 314q-123 123 -123 284v127q0 170 124.5 290t299.5 120h22q176 0 300 -120t124 -290v-127q0 -162 -119 -284q147 -121 148 -314v-139q0 -170 -123 -290t-297 -120h-82q-176 0 -300 120t-124 290zM426 379q0 -49 36 -85t85 -36h8q51 0 88 36t37 85 v201q0 47 -37 82.5t-88 35.5h-8q-51 0 -86 -34.5t-35 -83.5v-201zM436 1081q0 -39 26.5 -64.5t65.5 -25.5h45q39 0 68 26.5t29 63.5v205q0 37 -29 63.5t-68 26.5h-45q-39 0 -65.5 -26.5t-26.5 -63.5v-205z" />
<glyph unicode="9" horiz-adv-x="1095" d="M86 922v321q0 168 130 293t306 125h43q180 0 313.5 -146.5t133.5 -349.5v-774q0 -172 -127 -293t-307 -121h-46q-178 0 -303 121t-125 293v31q0 80 82 80h162q33 0 57.5 -22.5t24.5 -57.5q0 -66 35 -107t90 -41q51 0 88 36t37 85v252q-88 -76 -227 -76 q-150 0 -258.5 102.5t-108.5 248.5zM418 977q0 -51 37 -88t86 -37h14q47 0 86 48.5t39 103.5v208q0 55 -39 100.5t-86 45.5h-14q-47 0 -85 -45t-38 -101v-235z" />
<glyph unicode=":" horiz-adv-x="520" d="M86 88v182q0 35 26.5 56.5t61.5 21.5h174q33 0 60.5 -21.5t27.5 -56.5v-182q0 -33 -26.5 -58.5t-61.5 -25.5h-174q-35 0 -61.5 25.5t-26.5 58.5zM86 791v182q0 33 26.5 55.5t61.5 22.5h174q33 0 60.5 -22.5t27.5 -55.5v-182q0 -35 -26.5 -59.5t-61.5 -24.5h-174 q-35 0 -61.5 24.5t-26.5 59.5z" />
<glyph unicode=";" horiz-adv-x="520" d="M86 68v184q0 35 25.5 57.5t60.5 22.5h170q35 0 61.5 -22.5t26.5 -57.5v-184q0 -25 -31 -93l-96 -208q-33 -68 -86 -68h-27q-29 0 -55 16q-33 20 -33 52q0 10 4 20l74 207q-2 -6 -8 -6q-33 0 -59.5 22.5t-26.5 57.5zM86 786v185q0 35 26.5 57.5t61.5 22.5h174 q33 0 60.5 -22.5t27.5 -57.5v-185q0 -33 -26.5 -58.5t-61.5 -25.5h-174q-35 0 -61.5 26t-26.5 58z" />
<glyph unicode="&#x3c;" horiz-adv-x="901" d="M70 692q0 35 24 58l518 493q27 25 56 25q41 0 92 -43q35 -33 67 -66q27 -23 27 -57q0 -35 -25 -60l-368 -348q-2 -2 0 -4l368 -350q25 -25 25 -53q0 -37 -45 -86q-35 -33 -70 -64q-23 -25 -59 -24q-37 0 -64 22l-522 498q-25 25 -24 59z" />
<glyph unicode="=" horiz-adv-x="1132" d="M86 373v125q0 33 23.5 57.5t60.5 24.5h793q35 0 59.5 -25t24.5 -57v-125q0 -35 -26 -55.5t-58 -20.5h-793q-84 0 -84 76zM86 829v127q0 31 23.5 55.5t60.5 24.5h793q35 0 59.5 -24.5t24.5 -55.5v-127q0 -33 -26 -53t-58 -20h-793q-84 0 -84 73z" />
<glyph unicode="&#x3e;" horiz-adv-x="901" d="M68 1096q0 39 47 86q37 31 73 63q25 23 62 23q35 0 61 -25l518 -493q25 -23 25 -58q0 -34 -25 -59l-524 -498q-25 -25 -55 -24q-41 0 -90 45q-33 35 -66 69q-25 25 -24 58q0 33 24 57l367 350q2 2 0 4l-367 348q-27 25 -26 54z" />
<glyph unicode="?" horiz-adv-x="1087" d="M86 1192v51q0 172 127 295t305 123h55q178 0 303 -123t125 -295v-51q0 -162 -92 -311q-86 -139 -231 -238l-8 -6q-39 -27 -39 -53v-78q0 -33 -23.5 -56.5t-58.5 -23.5h-156q-35 0 -59.5 23.5t-24.5 56.5v145q0 53 31 90q12 14 74 60q252 193 252 377v43q0 78 -35 118.5 t-84 40.5q-47 0 -84 -46t-37 -113v-29q0 -35 -24.5 -58.5t-59.5 -23.5h-168q-35 0 -61.5 24.5t-26.5 57.5zM295 90v184q0 35 27.5 58.5t60.5 23.5h174q35 0 61.5 -23.5t26.5 -58.5v-184q0 -35 -26.5 -60.5t-61.5 -25.5h-174q-35 0 -61.5 25.5t-26.5 60.5z" />
<glyph unicode="@" horiz-adv-x="1964" d="M121 813q0 381 262 636t649 255q334 0 570 -205q243 -212 243 -536q0 -270 -153.5 -424t-425.5 -154q-57 0 -105.5 29.5t-64.5 81.5q-90 -98 -232 -99q-143 0 -223 101q-74 94 -74 245q0 168 191.5 343.5t361.5 175.5q109 0 168.5 -61.5t59.5 -170.5v-401q0 -27 16 -27 q78 0 154 109q70 102 69 188q0 264 -141 420q-147 160 -414 160q-287 0 -470 -190.5t-183 -475.5q0 -268 197.5 -454.5t474.5 -186.5q47 0 140 19.5t140 19.5q63 0 64 -70v-14v-14q0 -76 -140 -117q-100 -29 -204 -29q-387 0 -654 230q-276 240 -276 616zM809 743 q0 -119 109 -118q74 0 139 50t65 116v200q0 39 -35 39q-82 0 -180 -100.5t-98 -186.5z" />
<glyph unicode="A" horiz-adv-x="1171" d="M41 90l303 1471q14 77 82 77h2h293q68 0 84 -77l325 -1471q2 -9 2 -17q0 -25 -18 -45q-24 -28 -61 -28h-185q-66 0 -82 80l-51 233q-6 29 -24 29h-250q-27 0 -33 -29l-43 -233q-14 -80 -86 -80h-182q-37 0 -59 28q-18 22 -18 48q0 7 1 14zM487 684q-1 -4 -1 -7 q0 -20 20 -20h133q24 0 24 19q0 3 -1 6l-91 483z" />
<glyph unicode="B" horiz-adv-x="1181" d="M86 84v1470q0 35 26.5 59.5t61.5 24.5h354q242 0 383 -122q133 -119 133 -310q0 -205 -159 -323q-8 -8 0 -15q211 -139 211 -379q0 -203 -157 -346t-374 -143h-391q-37 0 -62.5 25.5t-25.5 58.5zM426 334q0 -27 31 -27h112q61 0 107.5 55.5t46.5 137.5q0 80 -60.5 145.5 t-125.5 65.5h-80q-31 0 -31 -27v-350zM430 1030q0 -31 31 -31h86q57 0 102 52.5t45 122.5q0 66 -44 109.5t-103 43.5h-86q-31 0 -31 -29v-268z" />
<glyph unicode="C" horiz-adv-x="1163" d="M86 449v743q0 195 143.5 332t343.5 137h19q201 0 341 -137.5t140 -331.5v-68q0 -31 -25.5 -56.5t-60.5 -25.5h-172q-35 0 -61.5 26t-26.5 56v23q0 84 -41 139t-98 55q-59 0 -105.5 -56t-46.5 -138v-670q0 -82 46 -137t106 -55q59 0 104 55t45 137v53q0 84 82 84h172 q37 0 61.5 -23.5t24.5 -60.5v-81q0 -195 -142 -333.5t-343 -138.5h-19q-201 0 -344 138.5t-143 333.5z" />
<glyph unicode="D" horiz-adv-x="1150" d="M86 84v1470q0 35 24.5 59.5t61.5 24.5h408q203 0 344 -137t141 -332v-700q0 -195 -141.5 -332t-343.5 -137h-408q-35 0 -60.5 25.5t-25.5 58.5zM428 328q0 -29 31 -29h61q84 0 143.5 56.5t59.5 136.5v651q0 80 -59.5 136t-143.5 56h-61q-31 0 -31 -26v-981z" />
<glyph unicode="E" horiz-adv-x="1015" d="M86 84v1470q0 35 24.5 59.5t63.5 24.5h672q35 0 61.5 -24.5t26.5 -59.5v-139q0 -33 -26.5 -58.5t-61.5 -25.5h-387q-31 0 -31 -26v-271q0 -25 31 -24h293q35 0 61.5 -24.5t26.5 -59.5v-135q0 -33 -27 -58.5t-61 -25.5h-293q-31 0 -31 -29v-334q0 -29 31 -29h407 q35 0 61.5 -25.5t26.5 -58.5v-147q0 -33 -26.5 -58.5t-61.5 -25.5h-692q-35 0 -61.5 25.5t-26.5 58.5z" />
<glyph unicode="F" horiz-adv-x="997" d="M86 84v1470q0 35 27.5 59.5t60.5 24.5h674q35 0 61.5 -24.5t26.5 -59.5v-139q0 -33 -26.5 -58.5t-61.5 -25.5h-391q-31 0 -31 -26v-271q0 -25 31 -24h299q33 0 60.5 -24.5t27.5 -59.5v-135q0 -33 -25.5 -58.5t-62.5 -25.5h-303q-27 0 -27 -29v-594q0 -33 -24.5 -58.5 t-61.5 -25.5h-166q-37 0 -62.5 25.5t-25.5 58.5z" />
<glyph unicode="G" horiz-adv-x="1165" d="M86 455v735q0 195 142.5 333t342.5 138h19q201 0 341 -138.5t140 -332.5v-66q0 -35 -25.5 -59.5t-60.5 -24.5h-158q-35 0 -61.5 28t-26.5 56v23q0 82 -47 138t-106 56q-61 0 -107.5 -56t-46.5 -138v-660q0 -88 41 -139t113 -51q154 0 153 190v66q0 27 -28 27h-84 q-33 0 -60.5 25.5t-27.5 60.5v106q0 33 25.5 58.5t62.5 25.5h366q37 0 61.5 -27.5t24.5 -56.5v-688q0 -33 -24.5 -58.5t-61.5 -25.5h-30q-59 0 -97 98q0 -2 -2 -6q-90 -115 -256 -115h-37q-217 0 -351 139.5t-134 338.5z" />
<glyph unicode="H" horiz-adv-x="1132" d="M86 84v1470q0 35 25.5 59.5t60.5 24.5h172q35 0 60.5 -24.5t25.5 -59.5v-555q0 -29 27 -28h219q31 0 31 28v555q0 33 24.5 58.5t61.5 25.5h170q37 0 61.5 -24.5t24.5 -59.5v-1470q0 -33 -25 -58.5t-61 -25.5h-170q-37 0 -61.5 27.5t-24.5 56.5v543q0 29 -31 28h-219 q-27 0 -27 -28v-543q0 -29 -25.5 -56.5t-60.5 -27.5h-172q-35 0 -60.5 25.5t-25.5 58.5z" />
<glyph unicode="I" horiz-adv-x="565" d="M109 84v1470q0 35 24.5 59.5t61.5 24.5h176q35 0 60.5 -24.5t25.5 -59.5v-1470q0 -33 -25.5 -58.5t-60.5 -25.5h-176q-37 0 -61.5 25.5t-24.5 58.5z" />
<glyph unicode="J" horiz-adv-x="794" d="M41 82v166q0 35 25.5 59.5t60.5 24.5h127q37 0 62.5 24.5t25.5 57.5v1140q0 33 22.5 58.5t59.5 25.5h176q35 0 61.5 -25.5t26.5 -58.5v-1194q0 -160 -105.5 -260t-271.5 -100h-184q-37 0 -61.5 24.5t-24.5 57.5z" />
<glyph unicode="K" horiz-adv-x="1183" d="M86 80v1481q0 33 23.5 55t56.5 22h182q33 0 57.5 -22.5t24.5 -54.5v-455l287 483q29 49 71 49h205q27 0 50.5 -18t23.5 -45q0 -16 -10 -31q-98 -164 -316 -528l383 -891q12 -29 13 -53q0 -72 -74 -72h-209q-53 0 -82 70l-246 612l-88 -147q-8 -10 -8 -23v-432 q0 -33 -24.5 -56.5t-57.5 -23.5h-182q-35 0 -57.5 23.5t-22.5 56.5z" />
<glyph unicode="L" horiz-adv-x="974" d="M86 80v1481q0 33 23.5 55t56.5 22h182q33 0 58.5 -21.5t25.5 -55.5v-1227q0 -23 27 -23h395q37 0 59.5 -26.5t22.5 -59.5v-145q0 -33 -23.5 -56.5t-58.5 -23.5h-688q-35 0 -57.5 23.5t-22.5 56.5z" />
<glyph unicode="M" horiz-adv-x="1488" d="M86 80v1481q0 33 23.5 55t56.5 22h315q72 0 90 -82l179 -739l165 748q16 73 80 73h2h324q33 0 57.5 -22.5t24.5 -54.5v-1481q0 -33 -23.5 -56.5t-58.5 -23.5h-158q-35 0 -60.5 23.5t-25.5 56.5v799l-198 -805q-18 -74 -84 -74h-95q-63 0 -82 74l-198 833v-827 q0 -33 -25.5 -56.5t-60.5 -23.5h-168q-35 0 -57.5 23.5t-22.5 56.5z" />
<glyph unicode="N" horiz-adv-x="1202" d="M86 80v1476q0 35 22.5 58.5t57.5 23.5h168q63 0 96 -71l354 -764v751q0 35 27 59.5t61 24.5h160q35 0 59.5 -24.5t24.5 -59.5v-1474q0 -33 -24.5 -56.5t-59.5 -23.5h-160q-55 0 -86 66l-366 792v-778q0 -33 -25.5 -56.5t-60.5 -23.5h-168q-35 0 -57.5 23.5t-22.5 56.5z " />
<glyph unicode="O" d="M86 432v778q0 188 137 319.5t332 131.5h63q193 0 330 -131t137 -320v-778q0 -188 -137 -321.5t-330 -133.5h-63q-195 0 -332 133.5t-137 321.5zM440 473q0 -78 46 -129t104 -51q59 0 102 51t43 129v688q0 78 -44 131.5t-101 53.5t-103.5 -53.5t-46.5 -131.5v-688z" />
<glyph unicode="P" horiz-adv-x="1112" d="M86 80v1481q0 77 78 77h2h432q195 0 329 -132t134 -320v-88q0 -186 -134 -318.5t-329 -132.5h-143q-27 0 -27 -26v-541q0 -33 -25.5 -56.5t-60.5 -23.5h-176q-35 0 -57.5 23.5t-22.5 56.5zM432 965q0 -25 31 -25h112q57 0 98.5 39t41.5 92v135q0 53 -41 91t-99 38h-112 q-31 0 -31 -22v-348z" />
<glyph unicode="Q" d="M86 420v784q0 188 137 322.5t330 134.5h63q195 0 331 -134t136 -323v-784q0 -160 -99 -285t-253 -162l-29 -247q-12 -90 -88 -91h-49q-78 0 -88 91l-31 245q-158 35 -259 161t-101 288zM442 446q0 -80 45 -134t103 -54q55 0 99 54t44 134v730q0 80 -43 133t-100 53 t-102.5 -54.5t-45.5 -131.5v-730z" />
<glyph unicode="R" horiz-adv-x="1138" d="M86 80v1481q0 77 78 77h2h420q197 0 333 -122.5t136 -317.5v-78q0 -244 -211 -377l239 -653q4 -12 4 -24q0 -27 -21.5 -46.5t-51.5 -19.5h-178q-55 0 -82 72l-209 575q-8 23 -15 23h-90q-23 0 -22 -27v-563q0 -31 -24.5 -55.5t-59.5 -24.5h-168q-35 0 -57.5 23.5 t-22.5 56.5zM418 981q0 -23 22 -23h154q57 0 98 37t41 90v125q0 53 -41 91t-98 38h-158q-18 0 -18 -24v-334z" />
<glyph unicode="S" horiz-adv-x="1146" d="M59 438q0 55 86 88q61 18 123 35q16 6 31 6q49 0 82 -75q55 -125 63 -138q52 -73 144 -73h2q153 0 153 141q0 98 -165 235q-156 127 -312 252q-166 164 -166 328q0 199 140 315q127 109 313 109q178 0 307 -109q117 -100 170 -266q4 -14 4 -29q0 -51 -73 -81 q-57 -16 -115 -33q-14 -4 -27 -4q-55 0 -78 53q-84 192 -187 192h-1q-53 0 -93 -45t-40 -102q0 -70 172 -203q258 -197 319 -260q172 -174 172 -350q0 -207 -139 -329t-354 -122q-346 0 -484 322q-47 106 -47 143z" />
<glyph unicode="T" horiz-adv-x="1110" d="M31 1425v136q0 33 24.5 55t57.5 22h884q33 0 59.5 -22.5t26.5 -54.5v-136q0 -35 -25.5 -58.5t-60.5 -23.5h-252q-27 0 -26 -24v-1239q0 -33 -22.5 -56.5t-57.5 -23.5h-168q-35 0 -58.5 23.5t-23.5 56.5v1239q0 25 -24 24h-252q-35 0 -58.5 24t-23.5 58z" />
<glyph unicode="U" horiz-adv-x="1173" d="M86 430v1131q0 29 23.5 53t56.5 24h176q35 0 58.5 -24.5t23.5 -52.5v-1098q0 -78 50 -133.5t112 -55.5q59 0 108 55.5t49 133.5v1098q0 31 25 54t59 23h177q33 0 59.5 -23.5t26.5 -53.5v-1131q0 -186 -141.5 -319.5t-336.5 -133.5h-51q-193 0 -334 133.5t-141 319.5z" />
<glyph unicode="V" horiz-adv-x="1126" d="M39 1563q0 75 70 75h2h170q70 0 84 -65l200 -981l197 981q14 65 84 65h2h170q69 0 69 -65q0 -15 -4 -31l-313 -1466q-14 -76 -86 -76h-244q-66 0 -82 76l-317 1466q-2 10 -2 21z" />
<glyph unicode="W" horiz-adv-x="1636" d="M43 1554q-2 8 -2 16q-1 26 21 44q28 24 61 24h158q70 0 84 -73l153 -801l160 799q14 75 78 75h2h143q68 0 84 -75l168 -789l117 789q10 75 80 75h2h159q33 0 61 -24q24 -19 24 -48q0 -6 -1 -12l-256 -1478q-14 -76 -84 -76h-165q-68 0 -84 76l-170 833l-170 -833 q-16 -76 -82 -76h-166q-66 0 -80 76z" />
<glyph unicode="X" horiz-adv-x="1210" d="M39 66q0 12 6 26l361 762q6 14 0 29l-320 665q-6 14 -6 29q0 25 21.5 43t50.5 18h194q51 0 82 -67l170 -361l160 361q31 67 84 67h2h196q27 0 50.5 -18t23.5 -45q0 -12 -8 -27l-320 -665q-8 -16 -2 -27l379 -764q8 -14 8 -26q0 -29 -23.5 -47.5t-49.5 -18.5h-197 q-45 0 -78 68l-223 446l-209 -444q-31 -70 -82 -70h-196q-29 0 -51.5 18.5t-22.5 47.5z" />
<glyph unicode="Y" horiz-adv-x="1187" d="M37 1575q0 63 80 63h198q55 0 82 -69l215 -533q2 -6 2 -2l179 535q25 69 79 69h2h201q76 0 76 -69q0 -19 -8 -39l-350 -858q-10 -25 -11 -39v-553q0 -33 -24.5 -56.5t-57.5 -23.5h-178q-35 0 -59.5 23.5t-24.5 56.5v553q0 14 -10 37l-381 866q-10 20 -10 39z" />
<glyph unicode="Z" horiz-adv-x="1081" d="M63 80v108q0 49 15 76l555 1079h-443q-35 0 -59.5 21.5t-24.5 56.5v140q0 33 25 55t59 22h740q33 0 58.5 -22.5t25.5 -54.5v-109q0 -49 -15 -78l-553 -1067h488q33 0 58.5 -21.5t25.5 -54.5v-151q0 -33 -24.5 -56.5t-59.5 -23.5h-791q-35 0 -57.5 23.5t-22.5 56.5z" />
<glyph unicode="[" horiz-adv-x="651" d="M86 -131v1900q0 33 28.5 59.5t59.5 26.5h305q37 0 61.5 -25.5t24.5 -60.5v-73q0 -33 -24.5 -59.5t-61.5 -26.5h-84q-8 0 -8 -6v-1569q0 -8 8 -8h84q37 0 61.5 -26t24.5 -58v-74q0 -35 -24.5 -60.5t-61.5 -25.5h-305q-33 0 -60.5 25.5t-27.5 60.5z" />
<glyph unicode="\" horiz-adv-x="931" d="M86 1583q0 78 86 78h127q25 0 50.5 -18.5t33.5 -40.5l461 -1518q4 -14 4 -29q0 -78 -88 -78h-131q-25 0 -50.5 18.5t-33.5 41.5l-455 1517q-4 14 -4 29z" />
<glyph unicode="]" horiz-adv-x="651" d="M86 -57q0 33 24.5 58.5t61.5 25.5h84q8 0 8 8v1569q0 6 -8 6h-84q-37 0 -61.5 26.5t-24.5 59.5v73q0 35 24.5 60.5t61.5 25.5h305q31 0 59.5 -26.5t28.5 -59.5v-1900q0 -35 -27.5 -60.5t-60.5 -25.5h-305q-37 0 -61.5 25.5t-24.5 60.5v74z" />
<glyph unicode="^" horiz-adv-x="897" d="M49 1317q0 23 23 43l323 293q23 20 54 20q33 0 53 -20q109 -88 217 -176q129 -109 129 -168q-1 -25 -21 -41l-75 -68q-23 -20 -50 -20q-49 0 -124 69q-63 63 -127 125q-66 -63 -129 -127q-78 -72 -127 -71q-27 0 -50 20q-29 27 -57 53q-39 37 -39 68z" />
<glyph unicode="_" horiz-adv-x="1116" d="M-29 -240q0 27 27 47.5t61 20.5h1002q35 0 59.5 -20.5t24.5 -47.5v-65q0 -63 -84 -64h-1002q-88 0 -88 64v65z" />
<glyph unicode="`" horiz-adv-x="933" d="M164 1624q0 20 16 43q29 43 58 84q49 59 94 59q25 0 47 -14l428 -276q37 -23 37 -64q-1 -22 -15 -45q-39 -49 -116 -22q-182 55 -365 108q-184 61 -184 127z" />
<glyph unicode="a" horiz-adv-x="1034" d="M86 305v43q0 150 145 273q90 78 267 163q143 68 143 84v86q0 29 -20.5 49.5t-49.5 20.5h-88q-29 0 -50 -21.5t-21 -48.5v-30q0 -33 -26 -57.5t-60 -24.5h-138q-35 0 -60.5 24.5t-25.5 57.5v39q0 133 100.5 222t239.5 89h168q141 0 239.5 -89t98.5 -222v-791q1 -18 21 -84 q2 -12 2 -22q0 -66 -78 -66h-139q-43 0 -66 31q-6 10 -24 65q-6 -12 -58 -51q-90 -68 -182 -68q-154 0 -246 88.5t-92 239.5zM479 276q55 0 108.5 36t53.5 79v184q-113 -55 -152 -83q-79 -62 -79 -142q0 -74 69 -74z" />
<glyph unicode="b" horiz-adv-x="1030" d="M86 82v1497q0 33 25.5 57.5t60.5 24.5h150q35 0 60.5 -24.5t25.5 -57.5v-387q51 53 86 72q45 24 113 24h5h66q111 0 188.5 -75.5t77.5 -182.5v-786q0 -106 -78 -186.5t-188 -80.5h-66q-125 0 -215 115v8q-6 0 -10 -47q-31 -53 -82 -53h-133q-35 0 -60.5 24.5t-25.5 57.5z M410 334q0 -20 27.5 -44t41.5 -24h78q66 0 66 68v596q0 63 -66 63h-78q-14 0 -41.5 -21.5t-27.5 -41.5v-596z" />
<glyph unicode="c" horiz-adv-x="1040" d="M86 360v539q0 160 116.5 267.5t284.5 107.5h66q168 0 284.5 -107.5t116.5 -267.5v-31q0 -33 -25.5 -57.5t-60.5 -24.5h-141q-35 0 -60.5 25t-25.5 57q0 57 -34 95t-77 38t-76.5 -37.5t-33.5 -95.5v-473q0 -57 30.5 -92t79.5 -35q47 0 79 36t32 91v11q0 33 25.5 57 t60.5 24h141q35 0 60.5 -24.5t25.5 -56.5v-46q0 -158 -117.5 -270.5t-283.5 -112.5h-66q-168 0 -284.5 113t-116.5 270z" />
<glyph unicode="d" horiz-adv-x="1021" d="M86 244v786q0 106 78 182t188 76h62q127 0 182 -61q6 -8 22 -27v379q0 33 26 57.5t61 24.5h145q35 0 60.5 -24.5t25.5 -57.5v-1497q0 -33 -25.5 -57.5t-60.5 -24.5h-145q-70 0 -84 66v-3q-49 -47 -82 -61q-47 -25 -125 -25h-62q-111 0 -188.5 80t-77.5 187zM403 334 q0 -27 20.5 -47.5t49.5 -20.5h74q20 0 44.5 29t24.5 39v596q0 12 -23.5 37.5t-45.5 25.5h-74q-70 0 -70 -63v-596z" />
<glyph unicode="e" horiz-adv-x="1019" d="M86 352v547q0 156 95 265.5t253 109.5h148q156 0 256 -125q90 -117 90 -277v-258q0 -33 -24.5 -57.5t-59.5 -24.5h-455v-196q0 -31 21.5 -51.5t50.5 -20.5h86q29 0 51.5 20.5t22.5 51.5v18q0 33 25.5 57.5t60.5 24.5h141q35 0 60.5 -24.5t25.5 -57.5 q0 -164 -109.5 -270.5t-283.5 -106.5h-64q-176 0 -283.5 104.5t-107.5 270.5zM389 784h242l-2 142q0 67 -68 67h-2h-98q-72 0 -72 -67v-142z" />
<glyph unicode="f" horiz-adv-x="815" d="M53 1063v119q0 35 25.5 59.5t58.5 24.5h84l-2 110q0 119 85 202t206 83h170q35 0 60.5 -24.5t25.5 -57.5v-102q0 -33 -25.5 -58.5t-60.5 -25.5h-62q-35 0 -58 -21.5t-23 -54.5v-51h122q35 0 60.5 -24.5t25.5 -59.5v-119q0 -33 -25.5 -57.5t-60.5 -24.5h-127l3 -899 q0 -33 -26 -57.5t-60 -24.5h-146q-35 0 -60.5 24.5t-25.5 57.5v899h-80q-33 0 -58.5 24.5t-25.5 57.5z" />
<glyph unicode="g" horiz-adv-x="1112" d="M86 -164q0 117 102 174l15 6q-92 72 -92 156q0 74 36 115q25 29 97 69q-143 102 -144 279v289q0 145 107.5 247.5t261.5 102.5h74q139 0 264 -119q61 96 149 96q76 0 76 -84v-127q0 -77 -98 -77q-14 0 -31 2h-2q0 -12 5 -37t5 -37v-256q0 -147 -107.5 -251.5 t-260.5 -104.5h-111q-12 0 -25.5 -12.5t-13.5 -26.5q0 -31 39 -31h221q398 0 398 -281q0 -135 -101.5 -216t-273.5 -81h-293q-127 0 -212 58.5t-85 146.5zM389 -66q0 -23 23.5 -44t56.5 -21h211q33 0 53.5 20.5t20.5 38.5q0 59 -119 60h-166q-37 0 -58.5 -17.5t-21.5 -36.5z M414 618q0 -33 24.5 -54t57.5 -21h24q35 0 58.5 21t23.5 54v291q0 31 -23.5 53.5t-58.5 22.5h-24q-33 0 -57.5 -22.5t-24.5 -53.5v-291z" />
<glyph unicode="h" horiz-adv-x="1001" d="M86 82v1497q0 33 25.5 57.5t60.5 24.5h145q35 0 60.5 -24.5t25.5 -57.5v-410q129 119 252 119h41q90 0 154.5 -61.5t64.5 -147.5v-997q0 -33 -25.5 -57.5t-60.5 -24.5h-141q-35 0 -60.5 24.5t-25.5 57.5v836q0 73 -65 73h-2q-45 0 -88.5 -33.5t-43.5 -78.5v-797 q0 -33 -25.5 -57.5t-60.5 -24.5h-145q-35 0 -60.5 24.5t-25.5 57.5z" />
<glyph unicode="i" horiz-adv-x="530" d="M109 82v1100q0 35 25.5 59.5t60.5 24.5h141q35 0 60.5 -24.5t25.5 -59.5v-1100q0 -33 -25.5 -57.5t-60.5 -24.5h-141q-35 0 -60.5 24.5t-25.5 57.5zM109 1438v141q0 33 25.5 57.5t60.5 24.5h141q35 0 60.5 -24.5t25.5 -57.5v-141q0 -35 -25.5 -59.5t-60.5 -24.5h-141 q-35 0 -60.5 24.5t-25.5 59.5z" />
<glyph unicode="j" horiz-adv-x="540" d="M-111 -156q0 33 26 58.5t60 25.5h66q29 0 51.5 21.5t22.5 50.5v1180q0 35 25.5 59.5t60.5 24.5h145q35 0 60.5 -25t25.5 -59v-1280q0 -111 -80 -190t-196 -79h-181q-35 0 -60.5 26t-25.5 58v129zM115 1436v141q0 35 25.5 59.5t60.5 24.5h145q35 0 60.5 -24.5t25.5 -59.5 v-141q0 -35 -25.5 -59.5t-60.5 -24.5h-145q-35 0 -60.5 24.5t-25.5 59.5z" />
<glyph unicode="k" horiz-adv-x="1015" d="M86 82v1497q0 33 25.5 57.5t60.5 24.5h147q35 0 61 -24.5t26 -57.5v-696l217 334q33 49 82 49h149q78 0 78 -52q0 -20 -17 -45l-210 -335q-6 -12 0 -35q23 -57 194 -486q78 -197 78 -256q-1 -57 -62 -57h-188q-49 0 -70 55l-163 484q-29 -35 -56 -70q-33 -47 -32 -84 v-303q0 -33 -26 -57.5t-61 -24.5h-147q-35 0 -60.5 24.5t-25.5 57.5z" />
<glyph unicode="l" horiz-adv-x="538" d="M109 82v1497q0 33 25.5 57.5t60.5 24.5h149q35 0 60.5 -24.5t25.5 -57.5v-1497q0 -33 -25.5 -57.5t-60.5 -24.5h-149q-35 0 -60.5 24.5t-25.5 57.5z" />
<glyph unicode="m" horiz-adv-x="1505" d="M86 82v1089q0 33 25.5 57.5t60.5 24.5h143q35 0 60.5 -24.5t25.5 -57.5v-20q0 12 9 18q84 66 106 78q53 27 137 27q88 0 135 -25q39 -23 78 -82q8 -10 25 2q115 104 258 105q125 0 197.5 -70.5t72.5 -183.5v-938q0 -33 -25.5 -57.5t-60.5 -24.5h-143q-35 0 -60.5 24.5 t-25.5 57.5v827q0 84 -53 84q-43 0 -90.5 -40t-47.5 -68v-803q0 -33 -25.5 -57.5t-60.5 -24.5h-141q-35 0 -60.5 24.5t-25.5 57.5v827q0 88 -57 88q-45 0 -93.5 -34.5t-48.5 -65.5v-815q0 -33 -25.5 -57.5t-60.5 -24.5h-143q-35 0 -60.5 24.5t-25.5 57.5z" />
<glyph unicode="n" horiz-adv-x="1011" d="M86 82v1089q0 33 25.5 57.5t60.5 24.5h147q35 0 59.5 -24.5t24.5 -57.5v-8l3 2q111 109 264 109q115 0 186.5 -72t71.5 -182v-938q0 -33 -25.5 -57.5t-60.5 -24.5h-144q-35 0 -60.5 24.5t-25.5 57.5v844q0 73 -59 73h-2q-43 0 -95.5 -34.5t-52.5 -61.5v-821 q0 -33 -24.5 -57.5t-59.5 -24.5h-147q-35 0 -60.5 24.5t-25.5 57.5z" />
<glyph unicode="o" horiz-adv-x="985" d="M86 324v606q0 143 106.5 243.5t256.5 100.5h88q150 0 256 -100.5t106 -243.5v-606q0 -143 -106.5 -245t-255.5 -102h-88q-150 0 -256.5 101.5t-106.5 245.5zM391 328q0 -31 24.5 -54.5t57.5 -23.5h47q31 0 53.5 23.5t22.5 54.5v594q0 31 -22.5 53t-53.5 22h-47 q-33 0 -57.5 -22.5t-24.5 -52.5v-594z" />
<glyph unicode="p" horiz-adv-x="1005" d="M86 -285v1454q0 35 25.5 59.5t60.5 24.5h154q33 0 55 -27.5t31 -27.5q-2 0 64.5 38t135.5 38q133 0 220.5 -96.5t87.5 -241.5v-619q0 -150 -78 -245q-82 -106 -230 -107q-63 0 -127.5 37t-60.5 37q-16 0 -16 -14v-310q0 -35 -26 -59.5t-60 -24.5h-150q-35 0 -60.5 25 t-25.5 59zM408 301q0 -23 42 -48.5t80 -25.5q68 0 68 78v627q0 76 -66 76q-41 0 -82.5 -25t-41.5 -45v-637z" />
<glyph unicode="q" horiz-adv-x="997" d="M86 326v610q0 145 83 241.5t222 96.5q76 0 141 -41q49 -35 58 -35q12 0 34.5 27.5t55.5 27.5h147q35 0 60.5 -24.5t25.5 -59.5v-1454q0 -35 -25.5 -59.5t-60.5 -24.5h-143q-35 0 -60.5 25t-25.5 59v322q0 10 -18 10h1q0 -4 -61 -41q-67 -41 -129 -41q-143 0 -227 111 q-78 100 -78 250zM406 313q0 -71 71 -71h2q41 0 80 21t39 46v629q0 20 -42 45t-83 25q-68 0 -67 -76v-619z" />
<glyph unicode="r" horiz-adv-x="735" d="M86 82v1089q0 33 25.5 57.5t60.5 24.5h152q35 0 60.5 -24.5t25.5 -57.5v-22l4 4q63 59 86 76q47 33 106 45q8 1 16 1q31 -1 56 -19q31 -24 31 -64v-166q0 -34 -27 -60q-23 -23 -54 -23q-5 0 -10 1q-35 4 -65 4q-143 0 -143 -112v-754q0 -33 -26 -57.5t-60 -24.5h-152 q-35 0 -60.5 24.5t-25.5 57.5z" />
<glyph unicode="s" horiz-adv-x="995" d="M63 334q0 45 48 61l135 47q23 6 39 7q37 0 59.5 -37t40.5 -74q49 -82 123 -82q110 0 110 83t-135 167q-244 152 -250 158q-135 109 -135 254q0 172 117 268q109 88 289 88q158 0 274.5 -77t147.5 -208q4 -12 4 -22q0 -37 -45 -56l-125 -53q-20 -8 -37 -8q-37 0 -92.5 80 t-126.5 80q-39 0 -71 -28t-32 -64q0 -35 138 -115q180 -102 256 -174q137 -131 137 -289q0 -186 -127 -281q-111 -82 -297 -82q-150 0 -279 94.5t-163 233.5q-2 14 -3 29z" />
<glyph unicode="t" horiz-adv-x="835" d="M51 1061v119q0 33 25.5 57.5t60.5 24.5h86v190q0 35 25.5 59.5t60.5 24.5h144q35 0 60.5 -24.5t25.5 -59.5v-190h159q35 0 60.5 -25t25.5 -57v-119q0 -33 -25.5 -57.5t-60.5 -24.5h-161l2 -623q0 -45 12 -63.5t57 -18.5h90q35 0 60.5 -24.5t25.5 -56.5v-111 q0 -33 -25.5 -57.5t-60.5 -24.5h-217q-113 0 -186.5 76t-73.5 203v700h-84q-35 0 -60.5 24.5t-25.5 57.5z" />
<glyph unicode="u" horiz-adv-x="1007" d="M86 219v950q0 33 25.5 57.5t60.5 24.5h145q35 0 60.5 -24.5t25.5 -57.5v-800q0 -88 84 -88q39 0 79 30.5t40 63.5v794q0 33 25.5 57.5t60.5 24.5h144q35 0 60.5 -24.5t25.5 -57.5v-1087q0 -35 -26 -58.5t-60 -23.5h-146q-49 0 -73.5 46t-30.5 46q-4 0 -68.5 -57.5 t-130.5 -57.5h-76q-86 0 -155.5 78t-69.5 164z" />
<glyph unicode="v" horiz-adv-x="960" d="M41 1174q0 77 84 77h2h135q27 0 52.5 -19.5t31.5 -43.5l131 -633l148 633q6 25 31.5 44t52.5 19h127q86 0 86 -77q0 -13 -4 -23l-281 -1088q-16 -63 -76 -63h-182q-61 0 -78 63l-258 1088q-2 12 -2 23z" />
<glyph unicode="w" horiz-adv-x="1490" d="M39 1174q0 77 84 77h2h147q63 0 80 -63l131 -537l138 539q6 23 30.5 42t48.5 19h115q27 0 51.5 -19.5t30.5 -41.5l139 -541l117 539q14 63 78 63h135q86 0 86 -77q0 -11 -2 -23l-260 -1085q-14 -66 -86 -66h-137q-63 0 -78 66l-125 596l-131 -596q-14 -66 -78 -66h-174 q-57 0 -72 63l-268 1088q-2 12 -2 23z" />
<glyph unicode="x" horiz-adv-x="1007" d="M39 63q0 20 12 43l277 547q6 14 -2 31q-90 158 -181 315q-80 143 -79 195q0 57 81 57h136q53 0 75 -43l138 -262q2 -4 2 0q39 88 80 178q66 127 131 127h133q84 0 84 -59q0 -55 -82 -201q-90 -154 -178 -307q-6 -12 2 -31l290 -555q8 -14 9 -30q0 -68 -76 -68h-152 q-51 0 -75 45l-168 313l-154 -311q-23 -47 -76 -47h-141q-86 0 -86 63z" />
<glyph unicode="y" horiz-adv-x="999" d="M39 1174q0 77 84 77h2h137q27 0 52.5 -19.5t31.5 -43.5l156 -686l151 686q12 63 80 63h139q86 0 86 -77q0 -13 -4 -25l-290 -1090q-70 -266 -189 -360q-84 -68 -248 -68h-84q-35 0 -60.5 25t-25.5 59v123q0 33 26 58.5t60 25.5h37q66 0 102.5 47t36.5 105v12l-278 1063 q-2 12 -2 25z" />
<glyph unicode="z" horiz-adv-x="1021" d="M63 82v106q0 57 29 97l467 682h-362q-33 0 -58.5 23.5t-25.5 58.5v120q0 33 25.5 57.5t58.5 24.5h667q35 0 60.5 -24.5t25.5 -57.5v-100q0 -59 -28 -104l-457 -670h409q35 0 61 -24.5t26 -57.5v-131q0 -33 -26 -57.5t-61 -24.5h-724q-35 0 -61 24.5t-26 57.5z" />
<glyph unicode="{" horiz-adv-x="841" d="M86 768v84q0 29 22.5 50.5t51.5 21.5q49 0 91 55t42 117v401q0 129 93 220t226 91h68q76 0 76 -71v-78q0 -29 -23.5 -50.5t-52.5 -21.5h-27q-35 0 -59.5 -23.5t-24.5 -58.5v-424q0 -162 -143 -262q72 -39 113 -125q37 -74 36 -155v-430q0 -33 24 -56.5t58 -23.5h23 q29 0 52.5 -20.5t23.5 -49.5v-76q0 -70 -76 -69h-68q-133 0 -226 90t-93 219v401q0 61 -42 116.5t-91 55.5q-29 0 -51.5 21.5t-22.5 50.5z" />
<glyph unicode="|" horiz-adv-x="493" d="M109 -145v1951q0 33 25.5 58.5t60.5 25.5h104q35 0 60.5 -25.5t25.5 -58.5v-1951q0 -33 -25.5 -58.5t-60.5 -25.5h-104q-35 0 -60.5 25.5t-25.5 58.5z" />
<glyph unicode="}" horiz-adv-x="841" d="M86 -41q0 29 22.5 49.5t51.5 20.5h22q35 0 59.5 23.5t24.5 56.5v430q0 82 37 155q41 86 113 125q-145 100 -146 262v424q0 35 -24.5 58.5t-59.5 23.5h-26q-29 0 -51.5 21.5t-22.5 50.5v78q0 72 74 71h69q131 0 224.5 -91t93.5 -220v-401q0 -61 43 -116.5t90 -55.5 q29 0 52.5 -21.5t23.5 -50.5v-84q0 -29 -23.5 -50.5t-52.5 -21.5q-47 0 -90 -55t-43 -117v-401q0 -129 -93.5 -219t-224.5 -90h-69q-74 0 -74 69v76z" />
<glyph unicode="~" horiz-adv-x="1363" d="M86 481q0 16 12 33q162 217 375 217q98 0 238.5 -60.5t195.5 -60.5q51 0 108.5 64.5t90.5 64.5q18 0 41 -10q41 -20 82 -41q51 -31 51 -63q0 -19 -16 -37q-74 -94 -134 -135q-96 -70 -219 -70q-96 0 -247.5 60.5t-194.5 60.5q-59 0 -100 -47q-68 -76 -74 -80 q-20 -12 -41 -12q-18 0 -76 26q-92 45 -92 90z" />
<glyph unicode="&#xa1;" horiz-adv-x="512" d="M86 86l29 1028q2 33 25.5 57.5t58.5 24.5h110q33 0 58.5 -23.5t27.5 -56.5l31 -1030q0 -35 -25.5 -60.5t-60.5 -25.5h-168q-35 0 -60.5 25.5t-25.5 60.5zM104 1419v135q0 35 25 59.5t59 24.5h144q35 0 60.5 -24.5t25.5 -59.5v-135q0 -35 -25.5 -59.5t-60.5 -24.5h-142 q-35 0 -60.5 24.5t-25.5 59.5z" />
<glyph unicode="&#xa2;" horiz-adv-x="1054" d="M86 549v543q0 135 84 236.5t215 131.5v2v90q0 35 23.5 60.5t60.5 25.5h111q37 0 62.5 -25.5t25.5 -60.5v-90q0 -6 2 -6q125 -35 204.5 -135t79.5 -229v-31q0 -33 -25.5 -57.5t-60.5 -24.5h-141q-35 0 -60.5 24.5t-25.5 57.5q0 57 -34 95t-77 38t-76.5 -38t-33.5 -95v-477 q0 -57 30.5 -93t79.5 -36q47 0 79 35.5t32 93.5v8q0 35 25.5 59.5t60.5 24.5h141q35 0 60.5 -24.5t25.5 -59.5v-43q0 -160 -73 -227q-31 -29 -140 -66q-74 -27 -73 -84v-88q0 -33 -23.5 -58.5t-58.5 -25.5h-113q-35 0 -61.5 25.5t-26.5 60.5v82v6q-129 33 -214 137.5 t-85 237.5z" />
<glyph unicode="&#xa3;" horiz-adv-x="1368" d="M86 764v106q0 35 26.5 60.5t61.5 25.5h94q6 0 6 7l-2 229q-2 195 142.5 332t345.5 137h18q199 0 329 -136t130 -333v-68q0 -31 -25.5 -56.5t-60.5 -25.5h-150q-35 0 -61.5 26t-26.5 56v23q0 86 -41 140t-98 54q-61 0 -107 -56t-46 -138v-186q0 -4 6 -5h323 q35 0 61.5 -22.5t26.5 -56.5v-109q0 -35 -26.5 -60.5t-61.5 -25.5h-325q-4 0 -4 -2v-346q0 -23 24 -23h555q37 0 59.5 -26.5t22.5 -57.5v-147q0 -33 -22.5 -56.5t-59.5 -23.5h-846q-37 0 -59.5 23.5t-22.5 56.5v600q0 2 -4 2h-94q-35 0 -61.5 23.5t-26.5 58.5z" />
<glyph unicode="&#xa4;" horiz-adv-x="1239" d="M-29 606v107q0 35 27 58.5t61 23.5h101q4 0 4 4q2 4 -4 4h-97q-37 0 -62.5 25.5t-25.5 58.5v108q0 35 27 58.5t61 23.5h95q4 0 4 2v113q0 195 143.5 332t345.5 137h19q201 0 340 -137.5t139 -331.5v-68q0 -31 -24.5 -56.5t-59.5 -25.5h-172q-35 0 -61.5 26t-26.5 56v23 q0 84 -41 139t-100 55t-104.5 -56t-47.5 -138q-2 -20 -6 -39q-2 -31 12 -31h254q35 0 65.5 -24.5t22.5 -63.5q-25 -111 -24 -112q-27 -74 -86 -74h-234q-6 0 -6 -4q2 -4 6 -4h191q35 0 65.5 -25t22.5 -61q-23 -113 -25 -115q-27 -74 -86 -74h-164q-8 0 -8 -4v-39 q0 -82 46 -137t106 -55q59 0 104 55t45 137v53q0 84 84 84h172q35 0 60.5 -23.5t25.5 -60.5v-81q0 -195 -142.5 -333.5t-342.5 -138.5h-19q-201 0 -342 138.5t-147 333.5v67q0 4 -6 4h-97q-35 0 -61.5 25.5t-26.5 60.5z" />
<glyph unicode="&#xa5;" horiz-adv-x="1280" d="M66 414v108q0 35 26.5 57.5t61.5 22.5h327q4 0 6 25t-6 24h-325q-35 0 -60.5 25.5t-25.5 58.5v109q0 35 26.5 58.5t59.5 23.5h209q4 0 8 -6l-283 628q-6 14 -6 27q0 27 29 47q23 16 49 16h205q53 0 82 -69l208 -535q2 -4 5 2l172 533q25 70 84 69h202q29 0 51.5 -18 t22.5 -47q0 -10 -4 -23l-252 -632q4 8 8 8h209q35 0 61.5 -23.5t26.5 -58.5v-109q0 -33 -26.5 -58.5t-61.5 -25.5h-326q-6 0 -4 -24q0 -25 4 -25h328q35 0 61.5 -22.5t26.5 -57.5v-108q0 -35 -25.5 -60.5t-62.5 -25.5h-323q-6 0 -7 -2v-246q0 -33 -23.5 -56.5t-58.5 -23.5 h-178q-35 0 -59.5 23.5t-24.5 56.5v246q0 2 -4 2h-325q-35 0 -61.5 25.5t-26.5 60.5z" />
<glyph unicode="&#xa6;" horiz-adv-x="493" d="M86 -168v817q0 35 25.5 59.5t60.5 24.5h150q35 0 60.5 -24.5t25.5 -59.5v-817q0 -33 -26 -58.5t-60 -25.5h-150q-35 0 -60.5 25.5t-25.5 58.5zM86 989v817q0 33 25.5 58.5t60.5 25.5h150q35 0 60.5 -25.5t25.5 -58.5v-817q0 -35 -26 -59.5t-60 -24.5h-150 q-35 0 -60.5 24.5t-25.5 59.5z" />
<glyph unicode="&#xa7;" horiz-adv-x="1198" d="M10 -258q0 57 90 90q66 16 129 33q16 6 31 6q49 0 82 -76q55 -129 61 -139q49 -74 140 -74q156 0 155 146q0 96 -170 211q-264 182 -313 231q-168 166 -168 379q0 287 213 383q-139 150 -139 301q0 428 459 428q346 0 485 -379q2 -14 2 -25q0 -57 -74 -86 q-61 -16 -121 -32q-16 -6 -28 -6q-39 0 -66 41q-2 2 -35 69q-68 139 -163 139q-51 0 -92.5 -45t-41.5 -104q0 -80 172 -213q274 -211 322 -258q172 -172 172 -350q0 -256 -205 -379q131 -150 131 -305q0 -209 -139 -333t-356 -124q-395 0 -529 446q-4 12 -4 25zM373 549 q0 -78 96 -164q33 -29 166 -119q135 11 135 146q0 109 -274 290q-47 -4 -85 -50t-38 -103z" />
<glyph unicode="&#xa8;" horiz-adv-x="985" d="M86 1452v162q0 31 26.5 50t61.5 19h174q33 0 60.5 -19t27.5 -50v-162q0 -31 -26.5 -52.5t-61.5 -21.5h-174q-35 0 -61.5 21.5t-26.5 52.5zM545 1452v162q0 31 26.5 50t61.5 19h174q35 0 61.5 -19t26.5 -50v-162q0 -31 -26.5 -52.5t-61.5 -21.5h-174q-35 0 -61.5 21.5 t-26.5 52.5z" />
<glyph unicode="&#xa9;" horiz-adv-x="1912" d="M86 819q0 348 255 595t615 247t615.5 -247t255.5 -595t-255 -595t-616 -247q-360 0 -615 247t-255 595zM313 819q0 -258 188.5 -440t454.5 -182t454.5 182t188.5 440t-188 440.5t-455 182.5q-266 0 -454.5 -182.5t-188.5 -440.5zM647 596v446q0 121 89 207t214 86h13 q125 0 212 -86t87 -207v-38q0 -25 -18.5 -43.5t-43.5 -18.5h-104q-25 0 -44.5 18.5t-19.5 43.5v12q0 47 -22.5 75.5t-48.5 28.5q-31 0 -55.5 -29.5t-24.5 -74.5v-402q0 -45 24.5 -74.5t55.5 -29.5q29 0 53 28.5t24 75.5v31q0 61 62 62h102q63 0 64 -62v-49 q0 -121 -89.5 -207t-213.5 -86h-13q-125 0 -214 86t-89 207z" />
<glyph unicode="&#xaa;" horiz-adv-x="1075" d="M86 690v43q0 152 143 275q90 78 269 161q143 70 143 86v84q0 29 -20.5 49.5t-49.5 20.5h-90q-29 0 -50 -20.5t-21 -49.5v-30q0 -33 -26 -57.5t-60 -24.5h-138q-33 0 -58.5 24.5t-25.5 57.5v41q0 131 99.5 221t238.5 90h170q139 0 237.5 -89t98.5 -222v-791q1 -18 21 -86 q2 -10 2 -20q0 -68 -78 -68h-137q-45 0 -66 31q-8 12 -26 67q-4 -12 -58 -51q-88 -70 -182 -70q-154 0 -245 89.5t-91 238.5zM408 733q0 -70 69 -69q57 0 110.5 34.5t53.5 79.5v183q-115 -53 -154 -84q-80 -61 -79 -144z" />
<glyph unicode="&#xab;" horiz-adv-x="1607" d="M70 692q0 35 24 58l518 493q27 25 56 25q41 0 92 -43q35 -33 67 -66q27 -23 27 -57q0 -35 -25 -60l-368 -348q-2 -2 0 -4l368 -350q25 -25 25 -53q0 -37 -45 -86q-35 -33 -70 -64q-23 -25 -59 -24q-37 0 -64 22l-522 498q-25 25 -24 59zM754 692q0 35 26 58l518 493 q25 25 56 25q39 0 90 -43q35 -33 69 -66q27 -23 27 -57q0 -35 -27 -60l-366 -348q-2 -2 0 -4l366 -350q27 -25 27 -53q0 -37 -45 -86q-35 -33 -70 -64q-25 -25 -61 -24q-37 0 -61 22l-523 498q-27 25 -26 59z" />
<glyph unicode="&#xac;" horiz-adv-x="1249" d="M86 682v135q0 31 22.5 53.5t57.5 22.5h917q35 0 57.5 -22.5t22.5 -53.5v-348q0 -72 -80 -72h-180q-35 0 -60.5 19.5t-25.5 52.5v113q0 23 -26 22h-625q-35 0 -57.5 24.5t-22.5 53.5z" />
<glyph unicode="&#xad;" horiz-adv-x="1064" d="M86 610v109q0 29 23.5 50.5t60.5 21.5h723q37 0 61.5 -21.5t24.5 -50.5v-109q0 -68 -86 -67h-723q-84 0 -84 67z" />
<glyph unicode="&#xae;" horiz-adv-x="1912" d="M86 819q0 348 255 595t615 247t615.5 -247t255.5 -595t-255 -595t-616 -247q-360 0 -615 247t-255 595zM313 819q0 -258 188.5 -440t454.5 -182t454.5 182t188.5 440t-188 440.5t-455 182.5q-266 0 -454.5 -182.5t-188.5 -440.5zM676 375v889q0 57 59 57h252 q123 0 205 -74q88 -80 88 -200v-48q0 -147 -125 -229l141 -385q2 -10 2 -18q0 -51 -53 -52h-108q-41 0 -60 52l-125 346q2 2 2 4h-53q-4 0 -4 -4v-338q0 -23 -17.5 -41.5t-43.5 -18.5h-101q-59 0 -59 60zM897 915q2 0 4 -2h90q72 0 72 66v76q0 27 -20.5 46t-51.5 19h-94v-4 v-201z" />
<glyph unicode="&#xaf;" horiz-adv-x="870" d="M51 1454v86q0 57 74 57h567q72 0 72 -57v-86q0 -57 -72 -57h-567q-31 0 -52.5 16.5t-21.5 40.5z" />
<glyph unicode="&#xb0;" horiz-adv-x="987" d="M86 1282q0 156 120 267.5t288 111.5q170 0 288.5 -111.5t118.5 -267.5q0 -158 -118.5 -269.5t-288.5 -111.5q-168 0 -288 111.5t-120 269.5zM317 1282q0 -70 51.5 -118t125.5 -48t125 48t51 118q0 68 -51.5 116t-124.5 48q-74 0 -125.5 -48t-51.5 -116z" />
<glyph unicode="&#xb1;" horiz-adv-x="1187" d="M86 78v129q0 33 23.5 58.5t60.5 25.5h840q35 0 60.5 -25.5t25.5 -58.5v-129q0 -35 -26 -56.5t-60 -21.5h-840q-84 0 -84 78zM86 727v125q0 35 26.5 58.5t61.5 23.5h268v256q0 35 27 59.5t61 24.5h129q37 0 61.5 -24.5t24.5 -59.5v-256h269q37 0 62.5 -25.5t25.5 -58.5 v-125q0 -35 -26.5 -58.5t-61.5 -23.5h-269v-258q0 -33 -25.5 -58.5t-62.5 -25.5h-129q-37 0 -61.5 25.5t-24.5 58.5v258h-268q-35 0 -61.5 24.5t-26.5 59.5z" />
<glyph unicode="&#xb4;" horiz-adv-x="933" d="M168 1456q0 39 37 64l258 184q152 102 225 102q43 0 67.5 -32.5t49.5 -65.5q41 -59 41 -96q0 -39 -43 -53l-504 -170q-23 -8 -45 -9q-39 0 -62.5 22.5t-23.5 53.5z" />
<glyph unicode="&#xb6;" horiz-adv-x="1597" d="M86 1098v88q0 188 134 320t329 132h876q35 0 60.5 -22.5t25.5 -54.5v-1481q0 -33 -23.5 -56.5t-57.5 -23.5h-166q-35 0 -59.5 23.5t-24.5 56.5v1239q0 25 -25 24h-68q-27 0 -26 -24v-1239q0 -33 -22.5 -56.5t-57.5 -23.5h-176q-35 0 -60.5 23.5t-25.5 56.5v541 q0 27 -27 26h-143q-195 0 -329 132t-134 319zM432 1071q0 -53 41 -92t98 -39h113q31 0 31 25v348q0 23 -31 22h-113q-57 0 -98 -37.5t-41 -91.5v-135z" />
<glyph unicode="&#xb7;" horiz-adv-x="520" d="M86 666v161q0 31 26.5 50.5t61.5 19.5h174q33 0 60.5 -19.5t27.5 -50.5v-161q0 -31 -26.5 -52.5t-61.5 -21.5h-174q-35 0 -61.5 21.5t-26.5 52.5z" />
<glyph unicode="&#xb8;" d="M268 -391q0 27 21.5 47t52.5 20q258 0 283 2q39 4 39 25q0 14 -52 21q-25 2 -184 2q-31 0 -53.5 20.5t-22.5 46.5v184q0 27 22.5 47.5t53.5 20.5h49q72 0 72 -68v-90q2 0 104 13q63 6 107 2q141 -19 141 -199q0 -182 -172 -201q-72 -8 -192 2q-154 10 -195 11 q-74 0 -74 65v29z" />
<glyph unicode="&#xba;" horiz-adv-x="985" d="M86 711v606q0 143 106.5 243.5t256.5 100.5h88q150 0 256 -100.5t106 -243.5v-606q0 -143 -106.5 -246t-255.5 -103h-88q-150 0 -256.5 102.5t-106.5 246.5zM391 715q0 -31 24.5 -54.5t57.5 -23.5h47q31 0 53.5 22.5t22.5 55.5v592q0 33 -22.5 54t-53.5 21h-47 q-33 0 -57.5 -22.5t-24.5 -52.5v-592z" />
<glyph unicode="&#xbb;" horiz-adv-x="1607" d="M68 1096q0 39 47 86q37 31 73 63q25 23 62 23q35 0 61 -25l518 -493q25 -23 25 -58q0 -34 -25 -59l-524 -498q-25 -25 -55 -24q-41 0 -90 45q-33 35 -66 69q-25 25 -24 58q0 33 24 57l367 350q2 2 0 4l-367 348q-27 25 -26 54zM754 283q0 33 26 57l367 350q2 2 0 4 l-367 348q-27 25 -26 54q0 39 47 86q37 31 73 63q25 23 62 23q35 0 59 -25l518 -493q27 -23 27 -58q0 -34 -27 -59l-522 -498q-27 -25 -57 -24q-39 0 -88 45q-33 35 -68 69q-25 25 -24 58z" />
<glyph unicode="&#xbf;" horiz-adv-x="1087" d="M86 424v49q0 184 90 311q37 53 223 232q4 2 11 6l8 6q39 27 39 53v78q0 35 23.5 57.5t58.5 22.5h155q35 0 59.5 -22.5t24.5 -57.5v-145q0 -53 -30 -88q-12 -14 -74 -62q-252 -190 -252 -377v-43q0 -78 35 -118.5t84 -40.5q47 0 84 46t37 113v29q0 35 24.5 58.5t58.5 23.5 h168q35 0 61.5 -24.5t26.5 -57.5v-49q0 -174 -126.5 -297t-305.5 -123h-55q-178 0 -303 123t-125 297zM442 1391v184q0 35 27 60.5t61 25.5h175q35 0 61.5 -25.5t26.5 -60.5v-184q0 -35 -28 -57.5t-60 -22.5h-175q-35 0 -61.5 22.5t-26.5 57.5z" />
<glyph unicode="&#xc0;" horiz-adv-x="1171" d="M41 90l303 1471q14 78 84 77h293q68 0 84 -77l325 -1471q8 -35 -16 -62.5t-61 -27.5h-185q-66 0 -82 80l-51 233q-6 29 -24 29h-250q-27 0 -33 -29l-43 -233q-14 -80 -86 -80h-182q-37 0 -59.5 27.5t-16.5 62.5zM211 2060q0 20 16 43q29 43 58 84q49 59 94 59 q25 0 47 -14l428 -276q37 -23 37 -64q-1 -22 -15 -45q-39 -49 -116 -22q-182 55 -365 108q-184 61 -184 127zM487 684q-4 -27 19 -27h133q27 0 23 25l-91 483z" />
<glyph unicode="&#xc1;" horiz-adv-x="1171" d="M41 90l303 1471q14 78 84 77h293q68 0 84 -77l325 -1471q8 -35 -16 -62.5t-61 -27.5h-185q-66 0 -82 80l-51 233q-6 29 -24 29h-250q-27 0 -33 -29l-43 -233q-14 -80 -86 -80h-182q-37 0 -59.5 27.5t-16.5 62.5zM236 1911q0 39 37 64l258 184q152 102 225 102 q43 0 67.5 -32.5t49.5 -65.5q41 -59 41 -96q0 -39 -43 -53l-504 -170q-23 -8 -45 -9q-39 0 -62.5 22.5t-23.5 53.5zM487 684q-4 -27 19 -27h133q27 0 23 25l-91 483z" />
<glyph unicode="&#xc2;" horiz-adv-x="1171" d="M41 90l303 1471q14 78 84 77h293q68 0 84 -77l325 -1471q8 -35 -16 -62.5t-61 -27.5h-185q-66 0 -82 80l-51 233q-6 29 -24 29h-250q-27 0 -33 -29l-43 -233q-14 -80 -86 -80h-182q-37 0 -59.5 27.5t-16.5 62.5zM125 1870q0 27 33 63l235 250q33 33 76 33h215 q41 0 70 -29l241 -250q39 -39 39 -67q0 -55 -129 -56h-114q-57 0 -125 66q-43 49 -86 96q-2 2 -4 0q-43 -49 -88 -96q-68 -66 -125 -66h-119q-119 0 -119 56zM487 684q-4 -27 19 -27h133q27 0 23 25l-91 483z" />
<glyph unicode="&#xc3;" horiz-adv-x="1171" d="M41 90l303 1471q14 78 84 77h293q68 0 84 -77l325 -1471q8 -35 -16 -62.5t-61 -27.5h-185q-66 0 -82 80l-51 233q-6 29 -24 29h-250q-27 0 -33 -29l-43 -233q-14 -80 -86 -80h-182q-37 0 -59.5 27.5t-16.5 62.5zM153 1861q0 96 88 179q92 90 217 90q72 0 158 -40t113 -40 q82 0 82 61q0 25 22.5 44.5t52.5 19.5h60q71 -1 71 -64q0 -106 -65 -184q-74 -90 -201 -90q-66 0 -167 37t-138 37q-23 0 -47.5 -18.5t-24.5 -31.5q0 -23 -20.5 -43t-50.5 -20h-78q-72 0 -72 63zM487 684q-4 -27 19 -27h133q27 0 23 25l-91 483z" />
<glyph unicode="&#xc4;" horiz-adv-x="1171" d="M41 90l303 1471q14 78 84 77h293q68 0 84 -77l325 -1471q8 -35 -16 -62.5t-61 -27.5h-185q-66 0 -82 80l-51 233q-6 29 -24 29h-250q-27 0 -33 -29l-43 -233q-14 -80 -86 -80h-182q-37 0 -59.5 27.5t-16.5 62.5zM164 1913v162q0 31 26.5 50t61.5 19h174q33 0 60.5 -19 t27.5 -50v-162q0 -31 -26.5 -52.5t-61.5 -21.5h-174q-35 0 -61.5 21.5t-26.5 52.5zM487 684q-4 -27 19 -27h133q27 0 23 25l-91 483zM623 1913v162q0 31 26.5 50t61.5 19h174q35 0 61.5 -19t26.5 -50v-162q0 -31 -26.5 -52.5t-61.5 -21.5h-174q-35 0 -61.5 21.5t-26.5 52.5z " />
<glyph unicode="&#xc5;" horiz-adv-x="1171" d="M41 90l303 1471q14 78 84 77h293q68 0 84 -77l325 -1471q8 -35 -16 -62.5t-61 -27.5h-185q-66 0 -82 80l-51 233q-6 29 -24 29h-250q-27 0 -33 -29l-43 -233q-14 -80 -86 -80h-182q-37 0 -59.5 27.5t-16.5 62.5zM301 1989v84q0 84 66.5 144.5t163.5 60.5h102 q96 0 163.5 -60.5t67.5 -144.5v-84q0 -86 -67.5 -147.5t-163.5 -61.5h-102q-96 0 -163 61.5t-67 147.5zM487 684q-4 -27 19 -27h133q27 0 23 25l-91 483zM494 2011q0 -55 59 -55h60q61 0 61 55v45q0 53 -61 54h-60q-59 0 -59 -54v-45z" />
<glyph unicode="&#xc6;" horiz-adv-x="1583" d="M41 90l303 1471q14 78 84 77h961q35 0 61.5 -24.5t26.5 -59.5v-139q0 -33 -27 -58.5t-61 -25.5h-500q-37 0 -37 -49q0 -41 29 -127q37 -113 37 -115q8 -31 32 -30h344q35 0 61.5 -24.5t26.5 -59.5v-135q0 -33 -25.5 -58.5t-62.5 -25.5h-262q-37 0 -31 -23l72 -336 q8 -33 33 -33h303q35 0 61.5 -25.5t26.5 -58.5v-147q0 -33 -26.5 -58.5t-61.5 -25.5h-535q-66 0 -83 80l-56 233q-6 29 -24 29h-256q-27 0 -31 -27l-39 -235q-12 -80 -86 -80h-182q-37 0 -59.5 27.5t-16.5 62.5zM512 684q-4 -27 16 -27h115q27 0 23 25l-84 459z" />
<glyph unicode="&#xc7;" horiz-adv-x="1163" d="M86 440v748q0 197 143.5 335t343.5 138h19q201 0 341 -138.5t140 -334.5v-68q0 -31 -25.5 -56.5t-60.5 -25.5h-172q-35 0 -61.5 26t-26.5 56v23q0 86 -41 140t-98 54q-59 0 -105.5 -55t-46.5 -139v-674q0 -82 46 -138.5t106 -56.5q59 0 104 55.5t45 139.5v53q0 84 82 84 h172q37 0 61.5 -23.5t24.5 -60.5v-82q0 -195 -141 -334t-340 -141v-49q51 6 104 10q63 6 105 0q141 -23 141 -209q0 -127 -65 -178q-53 -39 -164 -39q-53 0 -163 7.5t-165 7.5q-31 0 -53.5 20.5t-22.5 50.5v31q0 29 22.5 50.5t53.5 21.5q256 0 283 4q37 4 37 24q0 16 -52 23 q-25 2 -184 2q-31 0 -52.5 22.5t-21.5 49.5v200q-133 31 -223 152t-90 274z" />
<glyph unicode="&#xc8;" horiz-adv-x="1040" d="M86 84v1470q0 35 24.5 59.5t63.5 24.5h672q35 0 61.5 -24.5t26.5 -59.5v-139q0 -33 -26.5 -58.5t-61.5 -25.5h-387q-31 0 -31 -26v-271q0 -25 31 -24h293q35 0 61.5 -24.5t26.5 -59.5v-135q0 -33 -27 -58.5t-61 -25.5h-293q-31 0 -31 -29v-334q0 -29 31 -29h407 q35 0 61.5 -25.5t26.5 -58.5v-147q0 -33 -26.5 -58.5t-61.5 -25.5h-692q-35 0 -61.5 25.5t-26.5 58.5zM164 2060q0 20 16 43q29 43 58 84q49 59 94 59q25 0 47 -14l428 -276q37 -23 37 -64q-1 -22 -15 -45q-39 -49 -116 -22q-182 55 -365 108q-184 61 -184 127z" />
<glyph unicode="&#xc9;" horiz-adv-x="1040" d="M86 84v1470q0 35 24.5 59.5t63.5 24.5h672q35 0 61.5 -24.5t26.5 -59.5v-139q0 -33 -26.5 -58.5t-61.5 -25.5h-387q-31 0 -31 -26v-271q0 -25 31 -24h293q35 0 61.5 -24.5t26.5 -59.5v-135q0 -33 -27 -58.5t-61 -25.5h-293q-31 0 -31 -29v-334q0 -29 31 -29h407 q35 0 61.5 -25.5t26.5 -58.5v-147q0 -33 -26.5 -58.5t-61.5 -25.5h-692q-35 0 -61.5 25.5t-26.5 58.5zM168 1911q0 39 37 64l258 184q152 102 225 102q43 0 67.5 -32.5t49.5 -65.5q41 -59 41 -96q0 -39 -43 -53l-504 -170q-23 -8 -45 -9q-39 0 -62.5 22.5t-23.5 53.5z" />
<glyph unicode="&#xca;" horiz-adv-x="1040" d="M57 1870q0 27 33 63l235 250q33 33 76 33h215q41 0 70 -29l241 -250q39 -39 39 -67q0 -55 -129 -56h-114q-57 0 -125 66q-43 49 -86 96q-2 2 -4 0q-43 -49 -88 -96q-68 -66 -125 -66h-119q-119 0 -119 56zM86 84v1470q0 35 24.5 59.5t63.5 24.5h672q35 0 61.5 -24.5 t26.5 -59.5v-139q0 -33 -26.5 -58.5t-61.5 -25.5h-387q-31 0 -31 -26v-271q0 -25 31 -24h293q35 0 61.5 -24.5t26.5 -59.5v-135q0 -33 -27 -58.5t-61 -25.5h-293q-31 0 -31 -29v-334q0 -29 31 -29h407q35 0 61.5 -25.5t26.5 -58.5v-147q0 -33 -26.5 -58.5t-61.5 -25.5h-692 q-35 0 -61.5 25.5t-26.5 58.5z" />
<glyph unicode="&#xcb;" horiz-adv-x="1040" d="M86 84v1470q0 35 24.5 59.5t63.5 24.5h672q35 0 61.5 -24.5t26.5 -59.5v-139q0 -33 -26.5 -58.5t-61.5 -25.5h-387q-31 0 -31 -26v-271q0 -25 31 -24h293q35 0 61.5 -24.5t26.5 -59.5v-135q0 -33 -27 -58.5t-61 -25.5h-293q-31 0 -31 -29v-334q0 -29 31 -29h407 q35 0 61.5 -25.5t26.5 -58.5v-147q0 -33 -26.5 -58.5t-61.5 -25.5h-692q-35 0 -61.5 25.5t-26.5 58.5zM100 1913v162q0 31 26.5 50t61.5 19h174q33 0 60.5 -19t27.5 -50v-162q0 -31 -26.5 -52.5t-61.5 -21.5h-174q-35 0 -61.5 21.5t-26.5 52.5zM559 1913v162q0 31 26.5 50 t61.5 19h174q35 0 61.5 -19t26.5 -50v-162q0 -31 -26.5 -52.5t-61.5 -21.5h-174q-35 0 -61.5 21.5t-26.5 52.5z" />
<glyph unicode="&#xcc;" horiz-adv-x="518" d="M-63 2060q0 20 16 43q29 43 58 84q49 59 94 59q25 0 47 -14l428 -276q37 -23 37 -64q-1 -22 -15 -45q-39 -49 -116 -22q-182 55 -365 108q-184 61 -184 127zM109 84v1470q0 35 24.5 59.5t61.5 24.5h176q35 0 60.5 -24.5t25.5 -59.5v-1470q0 -33 -25.5 -58.5t-60.5 -25.5 h-176q-37 0 -61.5 25.5t-24.5 58.5z" />
<glyph unicode="&#xcd;" horiz-adv-x="518" d="M-49 1911q0 39 37 64l258 184q152 102 225 102q43 0 67.5 -32.5t49.5 -65.5q41 -59 41 -96q0 -39 -43 -53l-504 -170q-23 -8 -45 -9q-39 0 -62.5 22.5t-23.5 53.5zM109 84v1470q0 35 24.5 59.5t61.5 24.5h176q35 0 60.5 -24.5t25.5 -59.5v-1470q0 -33 -25.5 -58.5 t-60.5 -25.5h-176q-37 0 -61.5 25.5t-24.5 58.5z" />
<glyph unicode="&#xce;" horiz-adv-x="518" d="M-172 1870q0 27 33 63l235 250q33 33 76 33h215q41 0 70 -29l241 -250q39 -39 39 -67q0 -55 -129 -56h-114q-57 0 -125 66q-43 49 -86 96q-2 2 -4 0q-43 -49 -88 -96q-68 -66 -125 -66h-119q-119 0 -119 56zM109 84v1470q0 35 24.5 59.5t61.5 24.5h176q35 0 60.5 -24.5 t25.5 -59.5v-1470q0 -33 -25.5 -58.5t-60.5 -25.5h-176q-37 0 -61.5 25.5t-24.5 58.5z" />
<glyph unicode="&#xcf;" horiz-adv-x="518" d="M-150 1913v162q0 31 26.5 50t61.5 19h174q33 0 60.5 -19t27.5 -50v-162q0 -31 -26.5 -52.5t-61.5 -21.5h-174q-35 0 -61.5 21.5t-26.5 52.5zM109 84v1470q0 35 24.5 59.5t61.5 24.5h176q35 0 60.5 -24.5t25.5 -59.5v-1470q0 -33 -25.5 -58.5t-60.5 -25.5h-176 q-37 0 -61.5 25.5t-24.5 58.5zM309 1913v162q0 31 26.5 50t61.5 19h174q35 0 61.5 -19t26.5 -50v-162q0 -31 -26.5 -52.5t-61.5 -21.5h-174q-35 0 -61.5 21.5t-26.5 52.5z" />
<glyph unicode="&#xd0;" horiz-adv-x="1290" d="M86 786v113q0 29 20.5 50.5t51.5 21.5h71v583q0 84 82 84h408q203 0 344 -137t141 -332v-700q0 -195 -141 -332t-344 -137h-408q-37 0 -59.5 25.5t-22.5 58.5v631h-71q-31 0 -51.5 21.5t-20.5 49.5zM571 328q0 -29 27 -29h61q84 0 143.5 56.5t59.5 136.5v651 q0 80 -59.5 136t-143.5 56h-61q-27 0 -27 -26v-338h144q31 0 52 -20.5t21 -51.5v-113q0 -29 -21.5 -50t-51.5 -21h-144v-387z" />
<glyph unicode="&#xd1;" horiz-adv-x="1202" d="M86 80v1476q0 35 22.5 58.5t57.5 23.5h168q63 0 96 -71l354 -764v751q0 35 27 59.5t61 24.5h160q35 0 59.5 -24.5t24.5 -59.5v-1474q0 -33 -24.5 -56.5t-59.5 -23.5h-160q-55 0 -86 66l-366 792v-778q0 -33 -25.5 -56.5t-60.5 -23.5h-168q-35 0 -57.5 23.5t-22.5 56.5z M176 1861q0 96 88 179q92 90 217 90q72 0 158 -40t113 -40q82 0 82 61q0 25 22.5 44.5t52.5 19.5h60q71 -1 71 -64q0 -106 -65 -184q-74 -90 -201 -90q-66 0 -167 37t-138 37q-23 0 -47.5 -18.5t-24.5 -31.5q0 -23 -20.5 -43t-50.5 -20h-78q-72 0 -72 63z" />
<glyph unicode="&#xd2;" d="M86 432v778q0 188 137 319.5t332 131.5h63q193 0 330 -131t137 -320v-778q0 -188 -137 -321.5t-330 -133.5h-63q-195 0 -332 133.5t-137 321.5zM211 2060q0 20 16 43q29 43 58 84q49 59 94 59q25 0 47 -14l428 -276q37 -23 37 -64q-1 -22 -15 -45q-39 -49 -116 -22 q-182 55 -365 108q-184 61 -184 127zM440 473q0 -78 46 -129t104 -51q59 0 102 51t43 129v688q0 78 -44 131.5t-101 53.5t-103.5 -53.5t-46.5 -131.5v-688z" />
<glyph unicode="&#xd3;" d="M86 432v778q0 188 137 319.5t332 131.5h63q193 0 330 -131t137 -320v-778q0 -188 -137 -321.5t-330 -133.5h-63q-195 0 -332 133.5t-137 321.5zM236 1911q0 39 37 64l258 184q152 102 225 102q43 0 67.5 -32.5t49.5 -65.5q41 -59 41 -96q0 -39 -43 -53l-504 -170 q-23 -8 -45 -9q-39 0 -62.5 22.5t-23.5 53.5zM440 473q0 -78 46 -129t104 -51q59 0 102 51t43 129v688q0 78 -44 131.5t-101 53.5t-103.5 -53.5t-46.5 -131.5v-688z" />
<glyph unicode="&#xd4;" d="M86 432v778q0 188 137 319.5t332 131.5h63q193 0 330 -131t137 -320v-778q0 -188 -137 -321.5t-330 -133.5h-63q-195 0 -332 133.5t-137 321.5zM125 1870q0 27 33 63l235 250q33 33 76 33h215q41 0 70 -29l241 -250q39 -39 39 -67q0 -55 -129 -56h-114q-57 0 -125 66 q-43 49 -86 96q-2 2 -4 0q-43 -49 -88 -96q-68 -66 -125 -66h-119q-119 0 -119 56zM440 473q0 -78 46 -129t104 -51q59 0 102 51t43 129v688q0 78 -44 131.5t-101 53.5t-103.5 -53.5t-46.5 -131.5v-688z" />
<glyph unicode="&#xd5;" d="M86 432v778q0 188 137 319.5t332 131.5h63q193 0 330 -131t137 -320v-778q0 -188 -137 -321.5t-330 -133.5h-63q-195 0 -332 133.5t-137 321.5zM153 1861q0 96 88 179q92 90 217 90q72 0 158 -40t113 -40q82 0 82 61q0 25 22.5 44.5t52.5 19.5h60q71 -1 71 -64 q0 -106 -65 -184q-74 -90 -201 -90q-66 0 -167 37t-138 37q-23 0 -47.5 -18.5t-24.5 -31.5q0 -23 -20.5 -43t-50.5 -20h-78q-72 0 -72 63zM440 473q0 -78 46 -129t104 -51q59 0 102 51t43 129v688q0 78 -44 131.5t-101 53.5t-103.5 -53.5t-46.5 -131.5v-688z" />
<glyph unicode="&#xd6;" d="M86 432v778q0 188 137 319.5t332 131.5h63q193 0 330 -131t137 -320v-778q0 -188 -137 -321.5t-330 -133.5h-63q-195 0 -332 133.5t-137 321.5zM186 1913v162q0 31 26.5 50t61.5 19h174q33 0 60.5 -19t27.5 -50v-162q0 -31 -26.5 -52.5t-61.5 -21.5h-174 q-35 0 -61.5 21.5t-26.5 52.5zM440 473q0 -78 46 -129t104 -51q59 0 102 51t43 129v688q0 78 -44 131.5t-101 53.5t-103.5 -53.5t-46.5 -131.5v-688zM645 1913v162q0 31 26.5 50t61.5 19h174q35 0 61.5 -19t26.5 -50v-162q0 -31 -26.5 -52.5t-61.5 -21.5h-174 q-35 0 -61.5 21.5t-26.5 52.5z" />
<glyph unicode="&#xd7;" horiz-adv-x="1013" d="M70 424q0 37 26 59l197 185l-197 182q-27 25 -26 53q0 37 47 86q35 31 71 64q23 23 60 22q37 0 63 -24l197 -183l197 183q25 25 55 24q41 0 92 -43q33 -34 68 -67q25 -23 24 -56q0 -35 -26 -59l-197 -182l197 -185q27 -25 26 -53q0 -37 -47 -84q-35 -33 -72 -63 q-23 -23 -59 -23q-37 0 -61 23l-197 184l-197 -184q-27 -23 -57 -23q-41 0 -92 43q-33 33 -68 66q-25 23 -24 55z" />
<glyph unicode="&#xd8;" d="M-33 51q0 18 10 39l129 209q-20 66 -20 133v778q0 188 136 319.5t331 131.5h63q145 0 265 -78q47 78 94 78h129q33 0 61.5 -21.5t28.5 -52.5q0 -21 -10 -39l-121 -200q20 -66 20 -138v-778q0 -188 -136 -321.5t-331 -133.5h-63q-145 0 -266 80q-49 -80 -97 -80h-133 q-33 0 -61.5 21.5t-28.5 52.5zM440 852l258 428q-43 66 -108 66q-59 0 -104.5 -53.5t-45.5 -131.5v-309zM471 365q45 -72 119 -72q57 0 101 51t44 129v330z" />
<glyph unicode="&#xd9;" horiz-adv-x="1173" d="M86 430v1131q0 29 23.5 53t56.5 24h176q35 0 58.5 -24.5t23.5 -52.5v-1098q0 -78 50 -133.5t112 -55.5q59 0 108 55.5t49 133.5v1098q0 31 25 54t59 23h177q33 0 59.5 -23.5t26.5 -53.5v-1131q0 -186 -141.5 -319.5t-336.5 -133.5h-51q-193 0 -334 133.5t-141 319.5z M211 2060q0 20 16 43q29 43 58 84q49 59 94 59q25 0 47 -14l428 -276q37 -23 37 -64q-1 -22 -15 -45q-39 -49 -116 -22q-182 55 -365 108q-184 61 -184 127z" />
<glyph unicode="&#xda;" horiz-adv-x="1173" d="M86 430v1131q0 29 23.5 53t56.5 24h176q35 0 58.5 -24.5t23.5 -52.5v-1098q0 -78 50 -133.5t112 -55.5q59 0 108 55.5t49 133.5v1098q0 31 25 54t59 23h177q33 0 59.5 -23.5t26.5 -53.5v-1131q0 -186 -141.5 -319.5t-336.5 -133.5h-51q-193 0 -334 133.5t-141 319.5z M236 1911q0 39 37 64l258 184q152 102 225 102q43 0 67.5 -32.5t49.5 -65.5q41 -59 41 -96q0 -39 -43 -53l-504 -170q-23 -8 -45 -9q-39 0 -62.5 22.5t-23.5 53.5z" />
<glyph unicode="&#xdb;" horiz-adv-x="1173" d="M86 430v1131q0 29 23.5 53t56.5 24h176q35 0 58.5 -24.5t23.5 -52.5v-1098q0 -78 50 -133.5t112 -55.5q59 0 108 55.5t49 133.5v1098q0 31 25 54t59 23h177q33 0 59.5 -23.5t26.5 -53.5v-1131q0 -186 -141.5 -319.5t-336.5 -133.5h-51q-193 0 -334 133.5t-141 319.5z M125 1870q0 27 33 63l235 250q33 33 76 33h215q41 0 70 -29l241 -250q39 -39 39 -67q0 -55 -129 -56h-114q-57 0 -125 66q-43 49 -86 96q-2 2 -4 0q-43 -49 -88 -96q-68 -66 -125 -66h-119q-119 0 -119 56z" />
<glyph unicode="&#xdc;" horiz-adv-x="1173" d="M86 430v1131q0 29 23.5 53t56.5 24h176q35 0 58.5 -24.5t23.5 -52.5v-1098q0 -78 50 -133.5t112 -55.5q59 0 108 55.5t49 133.5v1098q0 31 25 54t59 23h177q33 0 59.5 -23.5t26.5 -53.5v-1131q0 -186 -141.5 -319.5t-336.5 -133.5h-51q-193 0 -334 133.5t-141 319.5z M186 1913v162q0 31 26.5 50t61.5 19h174q33 0 60.5 -19t27.5 -50v-162q0 -31 -26.5 -52.5t-61.5 -21.5h-174q-35 0 -61.5 21.5t-26.5 52.5zM645 1913v162q0 31 26.5 50t61.5 19h174q35 0 61.5 -19t26.5 -50v-162q0 -31 -26.5 -52.5t-61.5 -21.5h-174q-35 0 -61.5 21.5 t-26.5 52.5z" />
<glyph unicode="&#xdd;" horiz-adv-x="1280" d="M37 1575q0 63 80 63h198q55 0 82 -69l215 -533q2 -6 2 -2l179 535q25 70 81 69h201q76 0 76 -69q0 -19 -8 -39l-350 -858q-10 -25 -11 -39v-553q0 -33 -24.5 -56.5t-57.5 -23.5h-178q-35 0 -59.5 23.5t-24.5 56.5v553q0 14 -10 37l-381 866q-10 20 -10 39zM260 1911 q0 39 37 64l258 184q152 102 225 102q43 0 67.5 -32.5t49.5 -65.5q41 -59 41 -96q0 -39 -43 -53l-504 -170q-23 -8 -45 -9q-39 0 -62.5 22.5t-23.5 53.5z" />
<glyph unicode="&#xde;" horiz-adv-x="1146" d="M86 57v1524q0 33 22.5 56.5t57.5 23.5h176q35 0 60.5 -23.5t25.5 -56.5v-225q0 -27 27 -27h143q195 0 329 -132t134 -320v-89q0 -186 -134 -318t-329 -132h-143q-27 0 -27 -27v-254q0 -33 -25.5 -56.5t-60.5 -23.5h-176q-35 0 -57.5 24t-22.5 56zM432 655q0 -25 31 -24 h112q57 0 98.5 39t41.5 92v135q0 53 -41 91t-99 38h-112q-31 0 -31 -22v-349z" />
<glyph unicode="&#xdf;" horiz-adv-x="1099" d="M12 55v1231q0 145 121 260t270 115h189q150 0 268.5 -110.5t118.5 -256.5v-129q0 -174 -107 -280q141 -80 142 -318v-172q0 -172 -126 -295t-306 -123h-95q-37 0 -59 26t-22 58v146q0 78 81 78h91q47 0 78.5 43t31.5 108v150q0 59 -35 96t-80 37h-79q-37 0 -59.5 26.5 t-22.5 59.5v143q0 78 82 78h79q41 0 72 40t31 99v109q0 37 -29 64.5t-69 27.5h-138q-39 0 -67.5 -27.5t-28.5 -64.5v-1227q0 -31 -25.5 -50.5t-58.5 -19.5h-160q-33 0 -60.5 23t-27.5 55z" />
<glyph unicode="&#xe0;" horiz-adv-x="1075" d="M86 305v43q0 150 145 273q90 78 267 163q143 68 143 84v86q0 29 -20.5 49.5t-49.5 20.5h-88q-29 0 -50 -21.5t-21 -48.5v-30q0 -33 -26 -57.5t-60 -24.5h-138q-35 0 -60.5 24.5t-25.5 57.5v39q0 133 100.5 222t239.5 89h168q141 0 239.5 -89t98.5 -222v-791q1 -18 21 -84 q2 -12 2 -22q0 -66 -78 -66h-139q-43 0 -66 31q-6 10 -24 65q-6 -12 -58 -51q-90 -68 -182 -68q-154 0 -246 88.5t-92 239.5zM164 1624q0 20 16 43q29 43 58 84q49 59 94 59q25 0 47 -14l428 -276q37 -23 37 -64q-1 -22 -15 -45q-39 -49 -116 -22q-182 55 -365 108 q-184 61 -184 127zM410 348q0 -72 69 -72q55 0 108.5 36t53.5 79v184q-113 -55 -152 -83q-80 -63 -79 -144z" />
<glyph unicode="&#xe1;" horiz-adv-x="1075" d="M86 305v43q0 150 145 273q90 78 267 163q143 68 143 84v86q0 29 -20.5 49.5t-49.5 20.5h-88q-29 0 -50 -21.5t-21 -48.5v-30q0 -33 -26 -57.5t-60 -24.5h-138q-35 0 -60.5 24.5t-25.5 57.5v39q0 133 100.5 222t239.5 89h168q141 0 239.5 -89t98.5 -222v-791q1 -18 21 -84 q2 -12 2 -22q0 -66 -78 -66h-139q-43 0 -66 31q-6 10 -24 65q-6 -12 -58 -51q-90 -68 -182 -68q-154 0 -246 88.5t-92 239.5zM168 1456q0 39 37 64l258 184q152 102 225 102q43 0 67.5 -32.5t49.5 -65.5q41 -59 41 -96q0 -39 -43 -53l-504 -170q-23 -8 -45 -9 q-39 0 -62.5 22.5t-23.5 53.5zM410 348q0 -72 69 -72q55 0 108.5 36t53.5 79v184q-113 -55 -152 -83q-80 -63 -79 -144z" />
<glyph unicode="&#xe2;" horiz-adv-x="1075" d="M68 1391q0 27 33 63l235 250q33 33 76 33h215q41 0 70 -29l241 -250q39 -39 39 -67q0 -55 -129 -56h-114q-57 0 -125 66q-43 49 -86 96q-2 2 -4 0q-43 -49 -88 -96q-68 -66 -125 -66h-119q-119 0 -119 56zM86 305v43q0 150 145 273q90 78 267 163q143 68 143 84v86 q0 29 -20.5 49.5t-49.5 20.5h-88q-29 0 -50 -21.5t-21 -48.5v-30q0 -33 -26 -57.5t-60 -24.5h-138q-35 0 -60.5 24.5t-25.5 57.5v39q0 133 100.5 222t239.5 89h168q141 0 239.5 -89t98.5 -222v-791q1 -18 21 -84q2 -12 2 -22q0 -66 -78 -66h-139q-43 0 -66 31q-6 10 -24 65 q-6 -12 -58 -51q-90 -68 -182 -68q-154 0 -246 88.5t-92 239.5zM410 348q0 -72 69 -72q55 0 108.5 36t53.5 79v184q-113 -55 -152 -83q-80 -63 -79 -144z" />
<glyph unicode="&#xe3;" horiz-adv-x="1075" d="M51 1427q0 96 88 179q92 90 217 90q72 0 158 -40t113 -40q82 0 82 61q0 25 22.5 44.5t52.5 19.5h60q71 -1 71 -64q0 -106 -65 -184q-74 -90 -201 -90q-66 0 -167 37t-138 37q-23 0 -47.5 -18.5t-24.5 -31.5q0 -23 -20.5 -43t-50.5 -20h-78q-72 0 -72 63zM86 305v43 q0 150 145 273q90 78 267 163q143 68 143 84v86q0 29 -20.5 49.5t-49.5 20.5h-88q-29 0 -50 -21.5t-21 -48.5v-30q0 -33 -26 -57.5t-60 -24.5h-138q-35 0 -60.5 24.5t-25.5 57.5v39q0 133 100.5 222t239.5 89h168q141 0 239.5 -89t98.5 -222v-791q1 -18 21 -84q2 -12 2 -22 q0 -66 -78 -66h-139q-43 0 -66 31q-6 10 -24 65q-6 -12 -58 -51q-90 -68 -182 -68q-154 0 -246 88.5t-92 239.5zM410 348q0 -72 69 -72q55 0 108.5 36t53.5 79v184q-113 -55 -152 -83q-80 -63 -79 -144z" />
<glyph unicode="&#xe4;" horiz-adv-x="1075" d="M86 305v43q0 150 145 273q90 78 267 163q143 68 143 84v86q0 29 -20.5 49.5t-49.5 20.5h-88q-29 0 -50 -21.5t-21 -48.5v-30q0 -33 -26 -57.5t-60 -24.5h-138q-35 0 -60.5 24.5t-25.5 57.5v39q0 133 100.5 222t239.5 89h168q141 0 239.5 -89t98.5 -222v-791q1 -18 21 -84 q2 -12 2 -22q0 -66 -78 -66h-139q-43 0 -66 31q-6 10 -24 65q-6 -12 -58 -51q-90 -68 -182 -68q-154 0 -246 88.5t-92 239.5zM86 1452v162q0 31 26.5 50t61.5 19h174q33 0 60.5 -19t27.5 -50v-162q0 -31 -26.5 -52.5t-61.5 -21.5h-174q-35 0 -61.5 21.5t-26.5 52.5zM410 348 q0 -72 69 -72q55 0 108.5 36t53.5 79v184q-113 -55 -152 -83q-80 -63 -79 -144zM545 1452v162q0 31 26.5 50t61.5 19h174q35 0 61.5 -19t26.5 -50v-162q0 -31 -26.5 -52.5t-61.5 -21.5h-174q-35 0 -61.5 21.5t-26.5 52.5z" />
<glyph unicode="&#xe5;" horiz-adv-x="1075" d="M86 305v43q0 150 145 273q90 78 267 163q143 68 143 84v86q0 29 -20.5 49.5t-49.5 20.5h-88q-29 0 -50 -21.5t-21 -48.5v-30q0 -33 -26 -57.5t-60 -24.5h-138q-35 0 -60.5 24.5t-25.5 57.5v39q0 133 100.5 222t239.5 89h168q141 0 239.5 -89t98.5 -222v-791q1 -18 21 -84 q2 -12 2 -22q0 -66 -78 -66h-139q-43 0 -66 31q-6 10 -24 65q-6 -12 -58 -51q-90 -68 -182 -68q-154 0 -246 88.5t-92 239.5zM225 1573v84q0 84 66.5 144.5t163.5 60.5h102q96 0 163.5 -60.5t67.5 -144.5v-84q0 -86 -67.5 -147.5t-163.5 -61.5h-102q-96 0 -163 61.5 t-67 147.5zM410 348q0 -72 69 -72q55 0 108.5 36t53.5 79v184q-113 -55 -152 -83q-80 -63 -79 -144zM418 1595q0 -55 59 -55h60q61 0 61 55v45q0 53 -61 54h-60q-59 0 -59 -54v-45z" />
<glyph unicode="&#xe6;" horiz-adv-x="1574" d="M86 305v43q0 150 143 273q90 78 269 163q143 68 143 84v86q0 29 -20.5 49.5t-49.5 20.5h-90q-29 0 -50 -21.5t-21 -48.5v-30q0 -33 -26 -57.5t-60 -24.5h-138q-33 0 -58.5 24.5t-25.5 57.5v39q0 133 99.5 222t238.5 89h170q106 0 191 -53q84 53 188 53h150 q156 0 254 -125q92 -117 92 -277v-258q0 -33 -25.5 -57.5t-60.5 -24.5h-453v-213q0 -23 21.5 -39t50.5 -16h84q31 0 52.5 20.5t21.5 51.5v18q0 33 25.5 57.5t60.5 24.5h141q35 0 60.5 -24.5t25.5 -57.5q0 -164 -109.5 -270.5t-281.5 -106.5h-64q-201 0 -309 140 q-12 8 -25 -2q-150 -137 -278 -138q-154 0 -245 88.5t-91 239.5zM408 348q0 -72 69 -72q57 0 110.5 36t53.5 79v184q-115 -55 -154 -83q-80 -63 -79 -144zM946 784h240v142q0 68 -70 67h-98q-72 0 -72 -51v-158z" />
<glyph unicode="&#xe7;" horiz-adv-x="1040" d="M86 350v545q0 162 116.5 270.5t284.5 108.5h66q168 0 284.5 -108.5t116.5 -270.5v-31q0 -33 -25.5 -58.5t-60.5 -25.5h-141q-35 0 -60.5 25.5t-25.5 58.5q0 57 -34 95t-77 38t-76.5 -37.5t-33.5 -95.5v-477q0 -59 30.5 -95t79.5 -36q47 0 79 36t32 95v8q0 33 25.5 57.5 t60.5 24.5h141q35 0 60.5 -24.5t25.5 -57.5v-45q0 -160 -117.5 -273.5t-283.5 -113.5h-4v-49q53 6 106 10q61 4 105 -2q141 -23 141 -207q0 -125 -67 -176q-51 -39 -162 -39q-55 0 -165 7.5t-165 7.5q-29 0 -51.5 20.5t-22.5 48.5v31q0 31 21.5 52.5t52.5 21.5q244 0 283 4 t39 22q0 12 -54 21q-43 6 -182 6q-31 0 -53.5 21.5t-22.5 50.5v170q-119 41 -192.5 141t-73.5 225z" />
<glyph unicode="&#xe8;" horiz-adv-x="1019" d="M86 352v547q0 156 95 265.5t253 109.5h148q156 0 256 -125q90 -117 90 -277v-258q0 -33 -24.5 -57.5t-59.5 -24.5h-455v-196q0 -31 21.5 -51.5t50.5 -20.5h86q29 0 51.5 20.5t22.5 51.5v18q0 33 25.5 57.5t60.5 24.5h141q35 0 60.5 -24.5t25.5 -57.5 q0 -164 -109.5 -270.5t-283.5 -106.5h-64q-176 0 -283.5 104.5t-107.5 270.5zM164 1624q0 20 16 43q29 43 58 84q49 59 94 59q25 0 47 -14l428 -276q37 -23 37 -64q-1 -22 -15 -45q-39 -49 -116 -22q-182 55 -365 108q-184 61 -184 127zM389 784h242l-2 142q0 68 -70 67h-98 q-72 0 -72 -67v-142z" />
<glyph unicode="&#xe9;" horiz-adv-x="1019" d="M86 352v547q0 156 95 265.5t253 109.5h148q156 0 256 -125q90 -117 90 -277v-258q0 -33 -24.5 -57.5t-59.5 -24.5h-455v-196q0 -31 21.5 -51.5t50.5 -20.5h86q29 0 51.5 20.5t22.5 51.5v18q0 33 25.5 57.5t60.5 24.5h141q35 0 60.5 -24.5t25.5 -57.5 q0 -164 -109.5 -270.5t-283.5 -106.5h-64q-176 0 -283.5 104.5t-107.5 270.5zM168 1456q0 39 37 64l258 184q152 102 225 102q43 0 67.5 -32.5t49.5 -65.5q41 -59 41 -96q0 -39 -43 -53l-504 -170q-23 -8 -45 -9q-39 0 -62.5 22.5t-23.5 53.5zM389 784h242l-2 142 q0 68 -70 67h-98q-72 0 -72 -67v-142z" />
<glyph unicode="&#xea;" horiz-adv-x="1019" d="M45 1391q0 27 33 63l235 250q33 33 76 33h215q41 0 70 -29l241 -250q39 -39 39 -67q0 -55 -129 -56h-114q-57 0 -125 66q-43 49 -86 96q-2 2 -4 0q-43 -49 -88 -96q-68 -66 -125 -66h-119q-119 0 -119 56zM86 352v547q0 156 95 265.5t253 109.5h148q156 0 256 -125 q90 -117 90 -277v-258q0 -33 -24.5 -57.5t-59.5 -24.5h-455v-196q0 -31 21.5 -51.5t50.5 -20.5h86q29 0 51.5 20.5t22.5 51.5v18q0 33 25.5 57.5t60.5 24.5h141q35 0 60.5 -24.5t25.5 -57.5q0 -164 -109.5 -270.5t-283.5 -106.5h-64q-176 0 -283.5 104.5t-107.5 270.5z M389 784h242l-2 142q0 68 -70 67h-98q-72 0 -72 -67v-142z" />
<glyph unicode="&#xeb;" horiz-adv-x="1019" d="M86 352v547q0 156 95 265.5t253 109.5h148q156 0 256 -125q90 -117 90 -277v-258q0 -33 -24.5 -57.5t-59.5 -24.5h-455v-196q0 -31 21.5 -51.5t50.5 -20.5h86q29 0 51.5 20.5t22.5 51.5v18q0 33 25.5 57.5t60.5 24.5h141q35 0 60.5 -24.5t25.5 -57.5 q0 -164 -109.5 -270.5t-283.5 -106.5h-64q-176 0 -283.5 104.5t-107.5 270.5zM86 1452v162q0 31 26.5 50t61.5 19h174q33 0 60.5 -19t27.5 -50v-162q0 -31 -26.5 -52.5t-61.5 -21.5h-174q-35 0 -61.5 21.5t-26.5 52.5zM389 784h242l-2 142q0 68 -70 67h-98q-72 0 -72 -67 v-142zM545 1452v162q0 31 26.5 50t61.5 19h174q35 0 61.5 -19t26.5 -50v-162q0 -31 -26.5 -52.5t-61.5 -21.5h-174q-35 0 -61.5 21.5t-26.5 52.5z" />
<glyph unicode="&#xec;" horiz-adv-x="483" d="M-88 1624q0 20 16 43q29 43 58 84q49 59 94 59q25 0 47 -14l428 -276q37 -23 37 -64q-1 -22 -15 -45q-39 -49 -116 -22q-182 55 -365 108q-184 61 -184 127zM109 82v1087q0 33 25.5 57.5t60.5 24.5h141q35 0 60.5 -24.5t25.5 -57.5v-1087q0 -33 -25.5 -57.5t-60.5 -24.5 h-141q-35 0 -60.5 24.5t-25.5 57.5z" />
<glyph unicode="&#xed;" horiz-adv-x="483" d="M-70 1456q0 39 37 64l258 184q152 102 225 102q43 0 67.5 -32.5t49.5 -65.5q41 -59 41 -96q0 -39 -43 -53l-504 -170q-23 -8 -45 -9q-39 0 -62.5 22.5t-23.5 53.5zM109 82v1087q0 33 25.5 57.5t60.5 24.5h141q35 0 60.5 -24.5t25.5 -57.5v-1087q0 -33 -25.5 -57.5 t-60.5 -24.5h-141q-35 0 -60.5 24.5t-25.5 57.5z" />
<glyph unicode="&#xee;" horiz-adv-x="483" d="M-184 1391q0 27 33 63l235 250q33 33 76 33h215q41 0 70 -29l241 -250q39 -39 39 -67q0 -55 -129 -56h-114q-57 0 -125 66q-43 49 -86 96q-2 2 -4 0q-43 -49 -88 -96q-68 -66 -125 -66h-119q-119 0 -119 56zM109 82v1087q0 33 25.5 57.5t60.5 24.5h141q35 0 60.5 -24.5 t25.5 -57.5v-1087q0 -33 -25.5 -57.5t-60.5 -24.5h-141q-35 0 -60.5 24.5t-25.5 57.5z" />
<glyph unicode="&#xef;" horiz-adv-x="483" d="M-135 1452v162q0 31 26.5 50t61.5 19h174q33 0 60.5 -19t27.5 -50v-162q0 -31 -26.5 -52.5t-61.5 -21.5h-174q-35 0 -61.5 21.5t-26.5 52.5zM109 82v1087q0 33 25.5 57.5t60.5 24.5h141q35 0 60.5 -24.5t25.5 -57.5v-1087q0 -33 -25.5 -57.5t-60.5 -24.5h-141 q-35 0 -60.5 24.5t-25.5 57.5zM324 1452v162q0 31 26.5 50t61.5 19h174q35 0 61.5 -19t26.5 -50v-162q0 -31 -26.5 -52.5t-61.5 -21.5h-174q-35 0 -61.5 21.5t-26.5 52.5z" />
<glyph unicode="&#xf1;" horiz-adv-x="1011" d="M51 1427q0 96 88 179q92 90 217 90q72 0 158 -40t113 -40q82 0 82 61q0 25 22.5 44.5t52.5 19.5h60q71 -1 71 -64q0 -106 -65 -184q-74 -90 -201 -90q-66 0 -167 37t-138 37q-23 0 -47.5 -18.5t-24.5 -31.5q0 -23 -20.5 -43t-50.5 -20h-78q-72 0 -72 63zM86 82v1089 q0 33 25.5 57.5t60.5 24.5h147q35 0 59.5 -24.5t24.5 -57.5v-8l3 2q111 109 264 109q115 0 186.5 -72t71.5 -182v-938q0 -33 -25.5 -57.5t-60.5 -24.5h-144q-35 0 -60.5 24.5t-25.5 57.5v844q0 74 -61 73q-43 0 -95.5 -34.5t-52.5 -61.5v-821q0 -33 -24.5 -57.5t-59.5 -24.5 h-147q-35 0 -60.5 24.5t-25.5 57.5z" />
<glyph unicode="&#xf2;" horiz-adv-x="985" d="M86 324v606q0 143 106.5 243.5t256.5 100.5h88q150 0 256 -100.5t106 -243.5v-606q0 -143 -106.5 -245t-255.5 -102h-88q-150 0 -256.5 101.5t-106.5 245.5zM141 1624q0 20 16 43q29 43 58 84q49 59 94 59q25 0 47 -14l428 -276q37 -23 37 -64q-1 -22 -15 -45 q-39 -49 -116 -22q-182 55 -365 108q-184 61 -184 127zM391 328q0 -31 24.5 -54.5t57.5 -23.5h47q31 0 53.5 23.5t22.5 54.5v594q0 31 -22.5 53t-53.5 22h-47q-33 0 -57.5 -22.5t-24.5 -52.5v-594z" />
<glyph unicode="&#xf3;" horiz-adv-x="985" d="M86 324v606q0 143 106.5 243.5t256.5 100.5h88q150 0 256 -100.5t106 -243.5v-606q0 -143 -106.5 -245t-255.5 -102h-88q-150 0 -256.5 101.5t-106.5 245.5zM168 1456q0 39 37 64l258 184q152 102 225 102q43 0 67.5 -32.5t49.5 -65.5q41 -59 41 -96q0 -39 -43 -53 l-504 -170q-23 -8 -45 -9q-39 0 -62.5 22.5t-23.5 53.5zM391 328q0 -31 24.5 -54.5t57.5 -23.5h47q31 0 53.5 23.5t22.5 54.5v594q0 31 -22.5 53t-53.5 22h-47q-33 0 -57.5 -22.5t-24.5 -52.5v-594z" />
<glyph unicode="&#xf4;" horiz-adv-x="985" d="M45 1391q0 27 33 63l235 250q33 33 76 33h215q41 0 70 -29l241 -250q39 -39 39 -67q0 -55 -129 -56h-114q-57 0 -125 66q-43 49 -86 96q-2 2 -4 0q-43 -49 -88 -96q-68 -66 -125 -66h-119q-119 0 -119 56zM86 324v606q0 143 106.5 243.5t256.5 100.5h88q150 0 256 -100.5 t106 -243.5v-606q0 -143 -106.5 -245t-255.5 -102h-88q-150 0 -256.5 101.5t-106.5 245.5zM391 328q0 -31 24.5 -54.5t57.5 -23.5h47q31 0 53.5 23.5t22.5 54.5v594q0 31 -22.5 53t-53.5 22h-47q-33 0 -57.5 -22.5t-24.5 -52.5v-594z" />
<glyph unicode="&#xf5;" horiz-adv-x="985" d="M51 1427q0 96 88 179q92 90 217 90q72 0 158 -40t113 -40q82 0 82 61q0 25 22.5 44.5t52.5 19.5h60q71 -1 71 -64q0 -106 -65 -184q-74 -90 -201 -90q-66 0 -167 37t-138 37q-23 0 -47.5 -18.5t-24.5 -31.5q0 -23 -20.5 -43t-50.5 -20h-78q-72 0 -72 63zM86 324v606 q0 143 106.5 243.5t256.5 100.5h88q150 0 256 -100.5t106 -243.5v-606q0 -143 -106.5 -245t-255.5 -102h-88q-150 0 -256.5 101.5t-106.5 245.5zM391 328q0 -31 24.5 -54.5t57.5 -23.5h47q31 0 53.5 23.5t22.5 54.5v594q0 31 -22.5 53t-53.5 22h-47q-33 0 -57.5 -22.5 t-24.5 -52.5v-594z" />
<glyph unicode="&#xf6;" horiz-adv-x="985" d="M86 324v606q0 143 106.5 243.5t256.5 100.5h88q150 0 256 -100.5t106 -243.5v-606q0 -143 -106.5 -245t-255.5 -102h-88q-150 0 -256.5 101.5t-106.5 245.5zM86 1452v162q0 31 26.5 50t61.5 19h174q33 0 60.5 -19t27.5 -50v-162q0 -31 -26.5 -52.5t-61.5 -21.5h-174 q-35 0 -61.5 21.5t-26.5 52.5zM391 328q0 -31 24.5 -54.5t57.5 -23.5h47q31 0 53.5 23.5t22.5 54.5v594q0 31 -22.5 53t-53.5 22h-47q-33 0 -57.5 -22.5t-24.5 -52.5v-594zM545 1452v162q0 31 26.5 50t61.5 19h174q35 0 61.5 -19t26.5 -50v-162q0 -31 -26.5 -52.5 t-61.5 -21.5h-174q-35 0 -61.5 21.5t-26.5 52.5z" />
<glyph unicode="&#xf7;" horiz-adv-x="1132" d="M86 598v129q0 33 23.5 58.5t60.5 25.5h793q35 0 59.5 -24.5t24.5 -59.5v-129q0 -33 -26 -54.5t-58 -21.5h-793q-84 0 -84 76zM377 143v183q0 35 26.5 57.5t61.5 22.5h174q35 0 61.5 -23t26.5 -57v-183q0 -33 -26.5 -58.5t-61.5 -25.5h-174q-35 0 -61.5 26t-26.5 58z M377 989v182q0 35 26.5 57.5t61.5 22.5h174q35 0 61.5 -22.5t26.5 -57.5v-182q0 -33 -26.5 -58.5t-61.5 -25.5h-174q-35 0 -61.5 25.5t-26.5 58.5z" />
<glyph unicode="&#xf8;" horiz-adv-x="985" d="M-33 51q0 18 13 37l112 174q-6 31 -6 62v606q0 143 106.5 243.5t256.5 100.5h88q98 0 182 -45q35 45 74 45h127q33 0 62.5 -20.5t29.5 -53.5q-1 -19 -13 -37l-106 -168q6 -31 6 -65v-606q0 -143 -106.5 -245t-255.5 -102h-88q-98 0 -183 48q-35 -47 -76 -48h-133 q-33 0 -61.5 21.5t-28.5 52.5zM391 727l170 258q-18 12 -41 12h-47q-33 0 -57.5 -22.5t-24.5 -52.5v-195zM424 268q23 -18 49 -18h47q31 0 53.5 23.5t22.5 54.5v207z" />
<glyph unicode="&#xf9;" horiz-adv-x="1007" d="M86 219v950q0 33 25.5 57.5t60.5 24.5h145q35 0 60.5 -24.5t25.5 -57.5v-800q0 -88 84 -88q39 0 79 30.5t40 63.5v794q0 33 25.5 57.5t60.5 24.5h144q35 0 60.5 -24.5t25.5 -57.5v-1087q0 -35 -26 -58.5t-60 -23.5h-146q-49 0 -73.5 46t-30.5 46q-4 0 -68.5 -57.5 t-130.5 -57.5h-76q-86 0 -155.5 78t-69.5 164zM164 1624q0 20 16 43q29 43 58 84q49 59 94 59q25 0 47 -14l428 -276q37 -23 37 -64q-1 -22 -15 -45q-39 -49 -116 -22q-182 55 -365 108q-184 61 -184 127z" />
<glyph unicode="&#xfa;" horiz-adv-x="1007" d="M86 219v950q0 33 25.5 57.5t60.5 24.5h145q35 0 60.5 -24.5t25.5 -57.5v-800q0 -88 84 -88q39 0 79 30.5t40 63.5v794q0 33 25.5 57.5t60.5 24.5h144q35 0 60.5 -24.5t25.5 -57.5v-1087q0 -35 -26 -58.5t-60 -23.5h-146q-49 0 -73.5 46t-30.5 46q-4 0 -68.5 -57.5 t-130.5 -57.5h-76q-86 0 -155.5 78t-69.5 164zM168 1456q0 39 37 64l258 184q152 102 225 102q43 0 67.5 -32.5t49.5 -65.5q41 -59 41 -96q0 -39 -43 -53l-504 -170q-23 -8 -45 -9q-39 0 -62.5 22.5t-23.5 53.5z" />
<glyph unicode="&#xfb;" horiz-adv-x="1007" d="M45 1391q0 27 33 63l235 250q33 33 76 33h215q41 0 70 -29l241 -250q39 -39 39 -67q0 -55 -129 -56h-114q-57 0 -125 66q-43 49 -86 96q-2 2 -4 0q-43 -49 -88 -96q-68 -66 -125 -66h-119q-119 0 -119 56zM86 219v950q0 33 25.5 57.5t60.5 24.5h145q35 0 60.5 -24.5 t25.5 -57.5v-800q0 -88 84 -88q39 0 79 30.5t40 63.5v794q0 33 25.5 57.5t60.5 24.5h144q35 0 60.5 -24.5t25.5 -57.5v-1087q0 -35 -26 -58.5t-60 -23.5h-146q-49 0 -73.5 46t-30.5 46q-4 0 -68.5 -57.5t-130.5 -57.5h-76q-86 0 -155.5 78t-69.5 164z" />
<glyph unicode="&#xfc;" horiz-adv-x="1007" d="M86 219v950q0 33 25.5 57.5t60.5 24.5h145q35 0 60.5 -24.5t25.5 -57.5v-800q0 -88 84 -88q39 0 79 30.5t40 63.5v794q0 33 25.5 57.5t60.5 24.5h144q35 0 60.5 -24.5t25.5 -57.5v-1087q0 -35 -26 -58.5t-60 -23.5h-146q-49 0 -73.5 46t-30.5 46q-4 0 -68.5 -57.5 t-130.5 -57.5h-76q-86 0 -155.5 78t-69.5 164zM86 1452v162q0 31 26.5 50t61.5 19h174q33 0 60.5 -19t27.5 -50v-162q0 -31 -26.5 -52.5t-61.5 -21.5h-174q-35 0 -61.5 21.5t-26.5 52.5zM545 1452v162q0 31 26.5 50t61.5 19h174q35 0 61.5 -19t26.5 -50v-162 q0 -31 -26.5 -52.5t-61.5 -21.5h-174q-35 0 -61.5 21.5t-26.5 52.5z" />
<glyph unicode="&#xfd;" horiz-adv-x="1107" d="M39 1174q0 78 86 77h137q27 0 52.5 -19.5t31.5 -43.5l156 -686l151 686q12 63 80 63h139q86 0 86 -77q0 -13 -4 -25l-290 -1090q-70 -266 -189 -360q-84 -68 -248 -68h-84q-35 0 -60.5 25t-25.5 59v123q0 33 26 58.5t60 25.5h37q66 0 102.5 47t36.5 105v12l-278 1063 q-2 12 -2 25zM168 1456q0 39 37 64l258 184q152 102 225 102q43 0 67.5 -32.5t49.5 -65.5q41 -59 41 -96q0 -39 -43 -53l-504 -170q-23 -8 -45 -9q-39 0 -62.5 22.5t-23.5 53.5z" />
<glyph unicode="&#xfe;" horiz-adv-x="1005" d="M86 -285v1862q0 35 25.5 59.5t60.5 24.5h150q35 0 60.5 -24.5t25.5 -59.5v-354q0 -14 8 -15l62 39q61 39 134 39q133 0 220.5 -98t87.5 -244v-622q0 -150 -78 -248q-82 -106 -230 -107q-63 0 -127.5 37t-60.5 37q-16 0 -16 -14v-312q0 -33 -26 -58.5t-60 -25.5h-150 q-35 0 -60.5 26t-25.5 58zM408 305q0 -23 42 -48.5t80 -25.5q68 0 68 78v631q0 78 -66 78q-41 0 -82.5 -25.5t-41.5 -46.5v-641z" />
<glyph unicode="&#xff;" horiz-adv-x="1107" d="M39 1174q0 78 86 77h137q27 0 52.5 -19.5t31.5 -43.5l156 -686l151 686q12 63 80 63h139q86 0 86 -77q0 -13 -4 -25l-290 -1090q-70 -266 -189 -360q-84 -68 -248 -68h-84q-35 0 -60.5 25t-25.5 59v123q0 33 26 58.5t60 25.5h37q66 0 102.5 47t36.5 105v12l-278 1063 q-2 12 -2 25zM109 1452v162q0 31 26.5 50t61.5 19h174q33 0 60.5 -19t27.5 -50v-162q0 -31 -26.5 -52.5t-61.5 -21.5h-174q-35 0 -61.5 21.5t-26.5 52.5zM568 1452v162q0 31 26.5 50t61.5 19h174q35 0 61.5 -19t26.5 -50v-162q0 -31 -26.5 -52.5t-61.5 -21.5h-174 q-35 0 -61.5 21.5t-26.5 52.5z" />
<glyph unicode="&#x152;" horiz-adv-x="1693" d="M86 455v733q0 188 136 319t331 131h946q35 0 61.5 -24.5t26.5 -59.5v-139q0 -33 -26.5 -58.5t-61.5 -25.5h-385q-31 0 -31 -26v-271q0 -25 31 -24h291q35 0 61.5 -24.5t26.5 -59.5v-135q0 -33 -26.5 -58.5t-61.5 -25.5h-291q-31 0 -31 -29v-334q0 -29 31 -29h406 q35 0 61.5 -25.5t26.5 -58.5v-147q0 -33 -27 -58.5t-61 -25.5h-967q-193 0 -330 133t-137 322zM440 496q0 -78 44 -129.5t104 -51.5h112q33 0 33 29v961q0 27 -33 26h-112q-59 0 -103.5 -51t-44.5 -129v-655z" />
<glyph unicode="&#x153;" horiz-adv-x="1527" d="M86 324v606q0 143 106.5 243.5t256.5 100.5h88q115 0 206 -62q86 61 201 62h148q156 0 254 -125q92 -117 92 -277v-258q0 -33 -26 -57.5t-60 -24.5h-455l2 -196q0 -31 21.5 -51.5t50.5 -20.5h84q31 0 53 20.5t22 51.5v18q0 33 26 57.5t58 24.5h144q35 0 59.5 -24.5 t24.5 -57.5q0 -164 -108.5 -270.5t-282.5 -106.5h-64q-137 0 -237 66q-94 -66 -213 -66h-88q-150 0 -256.5 101.5t-106.5 245.5zM391 328q0 -31 24.5 -54.5t57.5 -23.5h47q31 0 53.5 23.5t22.5 54.5v594q0 31 -22.5 53t-53.5 22h-47q-33 0 -57.5 -22.5t-24.5 -52.5v-594z M899 784h242l-2 142q0 68 -70 67h-98q-72 0 -72 -67v-142z" />
<glyph unicode="&#x178;" horiz-adv-x="1280" d="M37 1575q0 63 80 63h198q55 0 82 -69l215 -533q2 -6 2 -2l179 535q25 70 81 69h201q76 0 76 -69q0 -19 -8 -39l-350 -858q-10 -25 -11 -39v-553q0 -33 -24.5 -56.5t-57.5 -23.5h-178q-35 0 -59.5 23.5t-24.5 56.5v553q0 14 -10 37l-381 866q-10 20 -10 39zM188 1913v162 q0 31 26.5 50t61.5 19h174q33 0 60.5 -19t27.5 -50v-162q0 -31 -26.5 -52.5t-61.5 -21.5h-174q-35 0 -61.5 21.5t-26.5 52.5zM647 1913v162q0 31 26.5 50t61.5 19h174q35 0 61.5 -19t26.5 -50v-162q0 -31 -26.5 -52.5t-61.5 -21.5h-174q-35 0 -61.5 21.5t-26.5 52.5z" />
<glyph unicode="&#x2c6;" horiz-adv-x="993" d="M45 1391q0 27 33 63l235 250q33 33 76 33h215q41 0 70 -29l241 -250q39 -39 39 -67q0 -55 -129 -56h-114q-57 0 -125 66q-43 49 -86 96q-2 2 -4 0q-43 -49 -88 -96q-68 -66 -125 -66h-119q-119 0 -119 56z" />
<glyph unicode="&#x2dc;" horiz-adv-x="921" d="M51 1427q0 96 88 179q92 90 217 90q72 0 158 -40t113 -40q82 0 82 61q0 25 22.5 44.5t52.5 19.5h60q71 -1 71 -64q0 -106 -65 -184q-74 -90 -201 -90q-66 0 -167 37t-138 37q-23 0 -47.5 -18.5t-24.5 -31.5q0 -23 -20.5 -43t-50.5 -20h-78q-72 0 -72 63z" />
<glyph unicode="&#x2000;" horiz-adv-x="1139" />
<glyph unicode="&#x2001;" horiz-adv-x="2278" />
<glyph unicode="&#x2002;" horiz-adv-x="1139" />
<glyph unicode="&#x2003;" horiz-adv-x="2278" />
<glyph unicode="&#x2004;" horiz-adv-x="759" />
<glyph unicode="&#x2005;" horiz-adv-x="569" />
<glyph unicode="&#x2006;" horiz-adv-x="379" />
<glyph unicode="&#x2007;" horiz-adv-x="379" />
<glyph unicode="&#x2008;" horiz-adv-x="284" />
<glyph unicode="&#x2009;" horiz-adv-x="455" />
<glyph unicode="&#x200a;" horiz-adv-x="126" />
<glyph unicode="&#x2010;" horiz-adv-x="1064" d="M86 610v109q0 29 23.5 50.5t60.5 21.5h723q37 0 61.5 -21.5t24.5 -50.5v-109q0 -68 -86 -67h-723q-84 0 -84 67z" />
<glyph unicode="&#x2011;" horiz-adv-x="1064" d="M86 610v109q0 29 23.5 50.5t60.5 21.5h723q37 0 61.5 -21.5t24.5 -50.5v-109q0 -68 -86 -67h-723q-84 0 -84 67z" />
<glyph unicode="&#x2012;" horiz-adv-x="1064" d="M86 610v109q0 29 23.5 50.5t60.5 21.5h723q37 0 61.5 -21.5t24.5 -50.5v-109q0 -68 -86 -67h-723q-84 0 -84 67z" />
<glyph unicode="&#x2013;" horiz-adv-x="1009" d="M86 610v109q0 29 23.5 50.5t60.5 21.5h668q37 0 61.5 -21.5t24.5 -50.5v-109q0 -68 -86 -67h-668q-84 0 -84 67z" />
<glyph unicode="&#x2014;" horiz-adv-x="1503" d="M86 610v109q0 29 23.5 50.5t60.5 21.5h1161q37 0 61.5 -21.5t24.5 -50.5v-109q0 -68 -86 -67h-1161q-84 0 -84 67z" />
<glyph unicode="&#x2018;" horiz-adv-x="516" d="M86 1135v174q0 25 31 88l96 198q33 66 86 66h29q27 0 53 -16q35 -18 35 -50q0 -8 -4 -18l-76 -197q2 4 8 4q33 0 59.5 -21.5t26.5 -53.5v-174q0 -33 -25.5 -55.5t-60.5 -22.5h-170q-35 0 -61.5 22.5t-26.5 55.5z" />
<glyph unicode="&#x2019;" horiz-adv-x="516" d="M86 1409v176q0 33 25.5 54.5t60.5 21.5h170q35 0 61.5 -21.5t26.5 -54.5v-176q0 -23 -31 -88l-96 -199q-33 -66 -86 -65h-27q-29 0 -55 16q-33 20 -33 49q0 10 4 21l74 196q-2 -6 -8 -6q-33 0 -59.5 21.5t-26.5 54.5z" />
<glyph unicode="&#x201a;" horiz-adv-x="516" d="M86 49v176q0 33 25.5 54.5t60.5 21.5h170q35 0 61.5 -21.5t26.5 -54.5v-176q0 -23 -31 -88l-96 -197q-33 -66 -86 -65h-27q-29 0 -55 16q-33 18 -33 47q0 10 4 21l74 197q-2 -6 -8 -7q-33 0 -59.5 22.5t-26.5 53.5z" />
<glyph unicode="&#x201c;" horiz-adv-x="942" d="M86 1135v174q0 25 31 88l96 198q33 66 86 66h29q27 0 53 -16q35 -18 35 -50q0 -8 -4 -18l-76 -197q2 4 8 4q33 0 59.5 -21.5t26.5 -53.5v-174q0 -33 -25.5 -55.5t-60.5 -22.5h-170q-35 0 -61.5 22.5t-26.5 55.5zM510 1135v174q0 25 33 88l96 198q31 66 86 66h27 q27 0 57.5 -17.5t30.5 -48.5q0 -8 -4 -18l-76 -197q2 4 10 4q33 0 59.5 -21.5t26.5 -53.5v-174q0 -33 -25.5 -55.5t-60.5 -22.5h-172q-35 0 -61.5 22.5t-26.5 55.5z" />
<glyph unicode="&#x201d;" horiz-adv-x="942" d="M86 1409v176q0 33 25.5 54.5t60.5 21.5h170q35 0 61.5 -21.5t26.5 -54.5v-176q0 -23 -31 -88l-96 -199q-33 -66 -86 -65h-27q-29 0 -55 16q-33 20 -33 49q0 10 4 21l74 196q-2 -6 -8 -6q-33 0 -59.5 21.5t-26.5 54.5zM510 1409v176q0 33 25.5 54.5t60.5 21.5h172 q35 0 61.5 -21.5t26.5 -54.5v-176q0 -23 -33 -88l-96 -199q-31 -66 -86 -65h-27q-27 0 -57.5 18.5t-30.5 46.5q0 10 4 21l76 196q-2 -6 -10 -6q-33 0 -59.5 21.5t-26.5 54.5z" />
<glyph unicode="&#x201e;" horiz-adv-x="942" d="M86 49v176q0 33 25.5 54.5t60.5 21.5h170q35 0 61.5 -21.5t26.5 -54.5v-176q0 -23 -31 -88l-96 -197q-33 -66 -86 -65h-27q-29 0 -55 16q-33 18 -33 47q0 10 4 21l74 197q-2 -6 -8 -7q-33 0 -59.5 22.5t-26.5 53.5zM510 49v176q0 33 25.5 54.5t60.5 21.5h172 q35 0 61.5 -21.5t26.5 -54.5v-176q0 -23 -33 -88l-96 -197q-31 -66 -86 -65h-27q-27 0 -57.5 17.5t-30.5 45.5q0 10 4 21l76 197q-2 -6 -10 -7q-33 0 -59.5 22.5t-26.5 53.5z" />
<glyph unicode="&#x2022;" horiz-adv-x="987" d="M86 684q0 156 120 267.5t288 111.5q170 0 288.5 -111.5t118.5 -267.5q0 -158 -118.5 -269.5t-288.5 -111.5q-168 0 -288 111.5t-120 269.5z" />
<glyph unicode="&#x2026;" horiz-adv-x="1380" d="M86 74v162q0 31 26.5 50t61.5 19h174q33 0 60.5 -19.5t27.5 -49.5v-162q0 -29 -26.5 -51.5t-61.5 -22.5h-174q-35 0 -61.5 22.5t-26.5 51.5zM516 74v162q0 31 26.5 50t59.5 19h174q35 0 61.5 -19.5t26.5 -49.5v-162q0 -29 -25.5 -51.5t-62.5 -22.5h-174q-35 0 -60.5 22.5 t-25.5 51.5zM944 74v162q0 31 26.5 50t61.5 19h174q35 0 61.5 -19.5t26.5 -49.5v-162q0 -29 -26.5 -51.5t-61.5 -22.5h-174q-35 0 -61.5 22.5t-26.5 51.5z" />
<glyph unicode="&#x202f;" horiz-adv-x="455" />
<glyph unicode="&#x2039;" horiz-adv-x="671" d="M70 651q0 33 24 56l291 268q25 25 55 24q39 0 138 -86q27 -23 26 -51q0 -53 -100 -135q-92 -76 -88 -80l162 -147q27 -25 26 -51q0 -35 -92 -125q-25 -23 -55 -23q-61 0 -174 105q-94 94 -189 188q-25 25 -24 57z" />
<glyph unicode="&#x203a;" horiz-adv-x="671" d="M68 449q0 27 26 51l162 147q2 4 0 6q-49 39 -100 80q-86 76 -86 131q0 29 24 49q98 86 137 86q31 0 56 -24l291 -268q25 -23 24 -56q1 -32 -24 -57l-295 -270q-25 -25 -62 -25t-61 25q-92 90 -92 125z" />
<glyph unicode="&#x205f;" horiz-adv-x="569" />
<glyph unicode="&#x2122;" horiz-adv-x="2648" d="M86 1452v109q0 35 24.5 56t59.5 21h860q35 0 60.5 -21.5t25.5 -55.5v-109q0 -33 -25.5 -56.5t-60.5 -23.5h-252q-25 0 -24 -24v-584q0 -33 -23.5 -55.5t-58.5 -22.5h-144q-35 0 -59.5 22.5t-24.5 55.5v584q0 25 -24 24h-250q-35 0 -59.5 23.5t-24.5 56.5zM1268 764v797 q0 33 23.5 55t56.5 22h292q55 0 89 -75l180 -406l166 414q27 68 82 67h299q35 0 59.5 -21.5t24.5 -55.5v-797q0 -33 -25 -55.5t-59 -22.5h-136q-33 0 -59.5 22.5t-26.5 55.5v430l-200 -440q-31 -68 -80 -68h-94q-51 0 -82 68l-201 456v-446q0 -33 -25.5 -55.5t-60.5 -22.5 h-143q-35 0 -57.5 22.5t-22.5 55.5z" />
<glyph unicode="&#xe000;" horiz-adv-x="1249" d="M0 0v1249h1249v-1249h-1249z" />
</font>
</defs>
</svg>
